{
  "asset": {
    "extras": {
      "author": "991519166 (https://sketchfab.com/991519166)",
      "license": "CC-BY-4.0 (http://creativecommons.org/licenses/by/4.0/)",
      "source": "https://sketchfab.com/3d-models/galaxy-dbb2f075329747a09cc8add2ad05acad",
      "title": "Galaxy"
    },
    "generator": "gltfeditor.com",
    "version": "2.0"
  },
  "buffers": [
    {
      "uri": "data:application/octet-stream;base64,",
      "byteLength": 4352
    },
    {
      "uri": "data:application/octet-stream;base64,",
      "byteLength": 29408
    }
  ],
  "bufferViews": [
    {
      "buffer": 0,
      "byteOffset": 0,
      "byteLength": 1968,
      "byteStride": 24,
      "target": 34962
    },
    {
      "buffer": 0,
      "byteOffset": 1968,
      "byteLength": 656,
      "byteStride": 8,
      "target": 34962
    },
    {
      "buffer": 0,
      "byteOffset": 2624,
      "byteLength": 1728,
      "target": 34963
    },
    {
      "buffer": 1,
      "byteOffset": 0,
      "byteLength": 13416,
      "byteStride": 24,
      "target": 34962
    },
    {
      "buffer": 1,
      "byteOffset": 13416,
      "byteLength": 4472,
      "byteStride": 8,
      "target": 34962
    },
    {
      "buffer": 1,
      "byteOffset": 17888,
      "byteLength": 11520,
      "target": 34963
    }
  ],
  "accessors": [
    {
      "bufferView": 0,
      "byteOffset": 0,
      "componentType": 5126,
      "normalized": false,
      "count": 82,
      "min": [
        -0.07709737867116928,
        -0.07709737867116928,
        -1
      ],
      "max": [
        0.07709737867116928,
        0.07709737867116928,
        1
      ],
      "type": "VEC3"
    },
    {
      "bufferView": 0,
      "byteOffset": 12,
      "componentType": 5126,
      "normalized": false,
      "count": 82,
      "min": [
        -90.3634033203125,
        -90.3634033203125,
        -4.924200057983398
      ],
      "max": [
        90.3634033203125,
        90.3634033203125,
        6.327600002288818
      ],
      "type": "VEC3"
    },
    {
      "bufferView": 1,
      "byteOffset": 0,
      "componentType": 5126,
      "normalized": false,
      "count": 82,
      "min": [
        0.002708122134208679,
        0.002708170562982559
      ],
      "max": [
        0.9972918629646301,
        0.9972918629646301
      ],
      "type": "VEC2"
    },
    {
      "bufferView": 2,
      "byteOffset": 0,
      "componentType": 5125,
      "normalized": false,
      "count": 432,
      "min": [
        0
      ],
      "max": [
        81
      ],
      "type": "SCALAR"
    },
    {
      "bufferView": 3,
      "byteOffset": 0,
      "componentType": 5126,
      "normalized": false,
      "count": 559,
      "min": [
        -1,
        -1,
        -1
      ],
      "max": [
        1,
        1,
        1
      ],
      "type": "VEC3"
    },
    {
      "bufferView": 3,
      "byteOffset": 12,
      "componentType": 5126,
      "normalized": false,
      "count": 559,
      "min": [
        -400,
        -400,
        -400
      ],
      "max": [
        400,
        400,
        400
      ],
      "type": "VEC3"
    },
    {
      "bufferView": 4,
      "byteOffset": 0,
      "componentType": 5126,
      "normalized": false,
      "count": 559,
      "min": [
        0,
        -1.1920928955078125e-7
      ],
      "max": [
        1.000000238418579,
        1
      ],
      "type": "VEC2"
    },
    {
      "bufferView": 5,
      "byteOffset": 0,
      "componentType": 5125,
      "normalized": false,
      "count": 2880,
      "min": [
        0
      ],
      "max": [
        558
      ],
      "type": "SCALAR"
    }
  ],
  "scene": 0,
  "scenes": [
    {
      "nodes": [
        7
      ]
    }
  ],
  "nodes": [
    {
      "name": "Galaxy_Material #65_0",
      "mesh": 0
    },
    {
      "name": "Galaxy",
      "children": [
        0
      ],
      "matrix": [
        2.266779661178589,
        0,
        -3.295710802078247,
        0,
        -3.295710802078247,
        1.6138324099301826e-7,
        -2.2667794227600098,
        0,
        0,
        3.999999761581421,
        1.6138324099301826e-7,
        0,
        0,
        0,
        0,
        1
      ]
    },
    {
      "name": "Sphere001_02 - Default_0",
      "mesh": 1
    },
    {
      "name": "Sphere001",
      "children": [
        2
      ],
      "matrix": [
        0.5666949152946472,
        0,
        0.8239277005195618,
        0,
        0.8239277005195618,
        4.0345810248254566e-8,
        -0.5666948556900024,
        0,
        0,
        0.9999999403953552,
        4.0345810248254566e-8,
        0,
        0,
        0,
        0,
        1
      ]
    },
    {
      "name": "RootNode",
      "children": [
        1,
        3
      ]
    },
    {
      "name": "Object_2",
      "children": [
        4
      ]
    },
    {
      "name": "a76a404306c24e12b5edf6421ae7203f.fbx",
      "children": [
        5
      ],
      "matrix": [
        1,
        0,
        0,
        0,
        0,
        3.422854177870249e-8,
        0.9999999403953552,
        0,
        0,
        -0.9999999403953552,
        3.422854177870249e-8,
        0,
        0,
        0,
        0,
        1
      ]
    },
    {
      "name": "Sketchfab_model",
      "children": [
        6
      ],
      "matrix": [
        0.01563509926199913,
        0,
        0,
        0,
        0,
        5.351666332309435e-10,
        -0.01563509926199913,
        0,
        0,
        0.01563509926199913,
        5.351666332309435e-10,
        0,
        0,
        0,
        0,
        1
      ]
    }
  ],
  "meshes": [
    {
      "primitives": [
        {
          "material": 0,
          "mode": 4,
          "attributes": {
            "NORMAL": 0,
            "POSITION": 1,
            "TEXCOORD_0": 2
          },
          "indices": 3
        }
      ]
    },
    {
      "primitives": [
        {
          "material": 1,
          "mode": 4,
          "attributes": {
            "NORMAL": 4,
            "POSITION": 5,
            "TEXCOORD_0": 6
          },
          "indices": 7
        }
      ]
    }
  ],
  "materials": [
    {
      "name": "Material_65",
      "pbrMetallicRoughness": {
        "baseColorFactor": [
          0,
          0,
          0,
          0.622808689
        ],
        "metallicFactor": 0,
        "roughnessFactor": 1,
        "baseColorTexture": {
          "index": 0,
          "texCoord": 0
        }
      },
      "emissiveFactor": [
        1,
        1,
        1
      ],
      "alphaMode": "BLEND",
      "doubleSided": true,
      "emissiveTexture": {
        "index": 1,
        "texCoord": 0
      }
    },
    {
      "name": "02_-_Default",
      "pbrMetallicRoughness": {
        "baseColorFactor": [
          0,
          0,
          0,
          1
        ],
        "metallicFactor": 0,
        "roughnessFactor": 0.8929713596
      },
      "emissiveFactor": [
        1,
        1,
        1
      ],
      "alphaMode": "OPAQUE",
      "doubleSided": false,
      "emissiveTexture": {
        "index": 2,
        "texCoord": 0
      }
    }
  ],
  "textures": [
    {
      "sampler": 0,
      "name": "base",
      "source": 0
    },
    {
      "sampler": 1,
      "name": "emissive",
      "source": 1
    },
    {
      "sampler": 2,
      "name": "emissive",
      "source": 2
    }
  ],
  "samplers": [
    {
      "magFilter": 9729,
      "minFilter": 9987,
      "wrapS": 10497,
      "wrapT": 10497
    },
    {
      "magFilter": 9729,
      "minFilter": 9987,
      "wrapS": 10497,
      "wrapT": 10497
    },
    {
      "magFilter": 9729,
      "minFilter": 9987,
      "wrapS": 10497,
      "wrapT": 10497
    }
  ],
  "images": [
    {
      "uri": "data:,",
      "mimeType": "image/jpeg"
    },
    {
      "uri": "data:,",
      "mimeType": "image/jpeg"
    },
    {
      "uri": "data:,",
      "mimeType": "image/jpeg"
    }
  ]
}