<?xml version="1.0" encoding="UTF-8"?>
<!DOCTYPE svg PUBLIC "-//W3C//DTD SVG 1.1//EN" "http://www.w3.org/Graphics/SVG/1.1/DTD/svg11.dtd">
<svg xmlns="http://www.w3.org/2000/svg" version="1.1" width="2000px" height="1999px" style="shape-rendering:geometricPrecision; text-rendering:geometricPrecision; image-rendering:optimizeQuality; fill-rule:evenodd; clip-rule:evenodd" xmlns:xlink="http://www.w3.org/1999/xlink">
<g><path style="opacity:0.998" fill="#f6efa6" d="M 966.5,-0.5 C 988.5,-0.5 1010.5,-0.5 1032.5,-0.5C 1032.5,0.166667 1032.83,0.5 1033.5,0.5C 1033.5,8.16667 1033.5,15.8333 1033.5,23.5C 1032.5,23.5 1031.5,23.5 1030.5,23.5C 1004.49,23.3389 978.491,23.6722 952.5,24.5C 951.791,23.596 950.791,23.2627 949.5,23.5C 949.5,16.1667 949.5,8.83333 949.5,1.5C 950.791,1.73731 951.791,1.40397 952.5,0.5C 957.363,0.819456 962.03,0.486123 966.5,-0.5 Z"/></g>
<g><path style="opacity:1" fill="#f2e9a2" d="M 1033.5,0.5 C 1046.6,0.352621 1059.6,1.01929 1072.5,2.5C 1074.41,9.89185 1075.08,17.5585 1074.5,25.5C 1072.83,25.5 1071.17,25.5 1069.5,25.5C 1056.32,25.2906 1043.32,24.6239 1030.5,23.5C 1031.5,23.5 1032.5,23.5 1033.5,23.5C 1033.5,15.8333 1033.5,8.16667 1033.5,0.5 Z"/></g>
<g><path style="opacity:0.992" fill="#eee39d" d="M 1072.5,2.5 C 1090.58,3.3749 1108.58,5.04157 1126.5,7.5C 1125.17,15.5 1125.17,23.5 1126.5,31.5C 1107.36,29.4205 1088.36,27.4205 1069.5,25.5C 1071.17,25.5 1072.83,25.5 1074.5,25.5C 1075.08,17.5585 1074.41,9.89185 1072.5,2.5 Z"/></g>
<g><path style="opacity:0.993" fill="#eee39d" d="M 908.5,3.5 C 908.5,11.5 908.5,19.5 908.5,27.5C 891.82,29.335 875.153,31.335 858.5,33.5C 858.153,25.3105 857.153,17.3105 855.5,9.5C 873.139,7.25351 890.805,5.25351 908.5,3.5 Z"/></g>
<g><path style="opacity:1" fill="#f2e9a1" d="M 952.5,0.5 C 951.791,1.40397 950.791,1.73731 949.5,1.5C 949.5,8.83333 949.5,16.1667 949.5,23.5C 950.791,23.2627 951.791,23.596 952.5,24.5C 937.828,25.417 923.162,26.417 908.5,27.5C 908.5,19.5 908.5,11.5 908.5,3.5C 923.147,2.25119 937.814,1.25119 952.5,0.5 Z"/></g>
<g><path style="opacity:0.996" fill="#e9dc97" d="M 1126.5,7.5 C 1140.86,9.31329 1155.19,11.3133 1169.5,13.5C 1168.86,21.5994 1168.2,29.5994 1167.5,37.5C 1153.79,35.685 1140.13,33.685 1126.5,31.5C 1125.17,23.5 1125.17,15.5 1126.5,7.5 Z"/></g>
<g><path style="opacity:0.997" fill="#e8dc97" d="M 855.5,9.5 C 857.153,17.3105 858.153,25.3105 858.5,33.5C 844.823,35.7241 831.156,38.0574 817.5,40.5C 816.791,39.596 815.791,39.2627 814.5,39.5C 814.799,31.747 814.466,24.0804 813.5,16.5C 827.509,14.1651 841.509,11.8318 855.5,9.5 Z"/></g>
<g><path style="opacity:0.998" fill="#e4d692" d="M 1169.5,13.5 C 1184.2,16.2391 1198.86,19.2391 1213.5,22.5C 1212.53,30.4144 1212.2,38.4144 1212.5,46.5C 1197.36,43.6045 1182.36,40.6045 1167.5,37.5C 1168.2,29.5994 1168.86,21.5994 1169.5,13.5 Z"/></g>
<g><path style="opacity:0.997" fill="#e4d792" d="M 813.5,16.5 C 814.466,24.0804 814.799,31.747 814.5,39.5C 815.791,39.2627 816.791,39.596 817.5,40.5C 802.522,43.629 787.522,46.629 772.5,49.5C 771.508,41.6841 771.174,33.6841 771.5,25.5C 785.444,22.2445 799.444,19.2445 813.5,16.5 Z"/></g>
<g><path style="opacity:0.991" fill="#dfd18d" d="M 1213.5,22.5 C 1227.09,25.232 1240.43,28.5654 1253.5,32.5C 1254.76,36.412 1255.43,40.5787 1255.5,45C 1255.49,49.229 1254.82,53.0623 1253.5,56.5C 1239.78,53.3193 1226.11,49.986 1212.5,46.5C 1212.2,38.4144 1212.53,30.4144 1213.5,22.5 Z"/></g>
<g><path style="opacity:0.996" fill="#dfd18d" d="M 771.5,25.5 C 771.174,33.6841 771.508,41.6841 772.5,49.5C 758.7,53.5376 744.7,57.2043 730.5,60.5C 729.177,57.0623 728.51,53.229 728.5,49C 728.569,44.5787 729.235,40.412 730.5,36.5C 743.937,32.3888 757.604,28.7221 771.5,25.5 Z"/></g>
<g><path style="opacity:0.995" fill="#dccc89" d="M 1253.5,32.5 C 1265.29,35.0305 1276.96,38.0305 1288.5,41.5C 1287.53,49.7483 1287.2,58.0817 1287.5,66.5C 1276.01,63.3339 1264.68,60.0006 1253.5,56.5C 1254.82,53.0623 1255.49,49.229 1255.5,45C 1255.43,40.5787 1254.76,36.412 1253.5,32.5 Z"/></g>
<g><path style="opacity:0.993" fill="#dccc89" d="M 730.5,36.5 C 729.235,40.412 728.569,44.5787 728.5,49C 728.51,53.229 729.177,57.0623 730.5,60.5C 719.073,64.6125 707.407,68.2792 695.5,71.5C 697.425,63.1007 698.092,54.434 697.5,45.5C 708.449,42.2946 719.449,39.2946 730.5,36.5 Z"/></g>
<g><path style="opacity:1" fill="#f7efa6" d="M 1032.5,40.5 C 1032.5,272.167 1032.5,503.833 1032.5,735.5C 1026.07,735.13 1019.74,735.63 1013.5,737C 1009.97,739.216 1007.81,742.383 1007,746.5C 1006.33,823.5 1006.33,900.5 1007,977.5C 1009.93,985.144 1015.59,988.81 1024,988.5C 1026.85,988.202 1029.68,987.869 1032.5,987.5C 1032.5,1015.5 1032.5,1043.5 1032.5,1071.5C 1023.13,1071.24 1014.13,1072.91 1005.5,1076.5C 1004.5,731.334 1004.17,386 1004.5,40.5C 1001.5,40.5 998.5,40.5 995.5,40.5C 992.5,40.5 989.5,40.5 986.5,40.5C 983.5,40.5 980.5,40.5 977.5,40.5C 977.833,294.001 977.5,547.334 976.5,800.5C 974.171,798.722 971.504,797.722 968.5,797.5C 962.69,796.51 956.69,796.177 950.5,796.5C 949.836,544.292 950.502,292.292 952.5,40.5C 979.328,39.3032 1005.99,39.3032 1032.5,40.5 Z"/></g>
<g><path style="opacity:1" fill="#f8f0a9" d="M 986.5,40.5 C 986.5,390.167 986.5,739.833 986.5,1089.5C 982.568,1095.08 979.568,1101.08 977.5,1107.5C 977.832,1066.33 977.499,1025.33 976.5,984.5C 980.396,976.458 980.396,968.458 976.5,960.5C 977.833,914.833 977.833,869.167 976.5,823.5C 980.455,815.769 980.455,808.103 976.5,800.5C 977.5,547.334 977.833,294.001 977.5,40.5C 980.5,40.5 983.5,40.5 986.5,40.5 Z"/></g>
<g><path style="opacity:1" fill="#f9f2a9" d="M 986.5,40.5 C 989.5,40.5 992.5,40.5 995.5,40.5C 995.5,387.833 995.5,735.167 995.5,1082.5C 992.319,1084.59 989.319,1086.93 986.5,1089.5C 986.5,739.833 986.5,390.167 986.5,40.5 Z"/></g>
<g><path style="opacity:1" fill="#f9f1a9" d="M 995.5,40.5 C 998.5,40.5 1001.5,40.5 1004.5,40.5C 1004.17,386 1004.5,731.334 1005.5,1076.5C 1002.2,1078.49 998.869,1080.49 995.5,1082.5C 995.5,735.167 995.5,387.833 995.5,40.5 Z"/></g>
<g><path style="opacity:1" fill="#f4eba3" d="M 1032.5,40.5 C 1037.17,40.5 1041.83,40.5 1046.5,40.5C 1047.57,41.4345 1048.9,41.7678 1050.5,41.5C 1050.5,293.167 1050.5,544.833 1050.5,796.5C 1047.5,796.5 1044.5,796.5 1041.5,796.5C 1041.67,779.497 1041.5,762.497 1041,745.5C 1039.71,740.721 1036.88,737.388 1032.5,735.5C 1032.5,503.833 1032.5,272.167 1032.5,40.5 Z"/></g>
<g><path style="opacity:1" fill="#f4eba4" d="M 952.5,40.5 C 950.502,292.292 949.836,544.292 950.5,796.5C 956.69,796.177 962.69,796.51 968.5,797.5C 959.5,797.5 950.5,797.5 941.5,797.5C 941.667,784.496 941.5,771.496 941,758.5C 939.312,754.315 936.479,751.315 932.5,749.5C 932.5,513.833 932.5,278.167 932.5,42.5C 933.791,42.7373 934.791,42.404 935.5,41.5C 941.172,41.2401 946.839,40.9068 952.5,40.5 Z"/></g>
<g><path style="opacity:1" fill="#f2e9a1" d="M 1046.5,40.5 C 1054.91,40.8788 1063.24,41.5454 1071.5,42.5C 1072.5,293.764 1072.83,545.097 1072.5,796.5C 1083.5,796.5 1094.5,796.5 1105.5,796.5C 1107.41,796.216 1109.08,796.549 1110.5,797.5C 1087.33,797.831 1064.33,797.498 1041.5,796.5C 1044.5,796.5 1047.5,796.5 1050.5,796.5C 1050.5,544.833 1050.5,293.167 1050.5,41.5C 1048.9,41.7678 1047.57,41.4345 1046.5,40.5 Z"/></g>
<g><path style="opacity:1" fill="#f2e9a1" d="M 935.5,41.5 C 934.791,42.404 933.791,42.7373 932.5,42.5C 932.5,278.167 932.5,513.833 932.5,749.5C 925.22,747.728 918.22,748.395 911.5,751.5C 911.273,517.875 911.273,282.208 911.5,44.5C 913.099,44.7678 914.432,44.4345 915.5,43.5C 921.987,42.4848 928.654,41.8182 935.5,41.5 Z"/></g>
<g><path style="opacity:1" fill="#efe59e" d="M 1071.5,42.5 C 1082.61,42.7784 1093.61,43.7784 1104.5,45.5C 1105.5,295.764 1105.83,546.097 1105.5,796.5C 1094.5,796.5 1083.5,796.5 1072.5,796.5C 1072.83,545.097 1072.5,293.764 1071.5,42.5 Z"/></g>
<g><path style="opacity:1" fill="#efe59e" d="M 915.5,43.5 C 914.432,44.4345 913.099,44.7678 911.5,44.5C 911.273,282.208 911.273,517.875 911.5,751.5C 909.404,753.433 907.904,755.767 907,758.5C 906.5,771.496 906.333,784.496 906.5,797.5C 886.838,793.659 879.338,801.326 884,820.5C 884.785,822.286 885.951,823.786 887.5,825C 893.715,826.416 900.048,826.916 906.5,826.5C 906.333,867.501 906.5,908.501 907,949.5C 907.574,955.134 909.074,960.468 911.5,965.5C 910.823,996.993 910.823,1028.66 911.5,1060.5C 911.495,1066.21 910.828,1071.54 909.5,1076.5C 899.548,1072.64 889.215,1070.98 878.5,1071.5C 878.5,730.167 878.5,388.833 878.5,47.5C 890.602,45.322 902.935,43.9887 915.5,43.5 Z"/></g>
<g><path style="opacity:1" fill="#ece19b" d="M 1104.5,45.5 C 1110.37,45.596 1116.04,46.2627 1121.5,47.5C 1121.5,298.167 1121.5,548.833 1121.5,799.5C 1117.99,798.081 1114.32,797.414 1110.5,797.5C 1109.08,796.549 1107.41,796.216 1105.5,796.5C 1105.83,546.097 1105.5,295.764 1104.5,45.5 Z"/></g>
<g><path style="opacity:1" fill="#ece19b" d="M 878.5,47.5 C 878.5,388.833 878.5,730.167 878.5,1071.5C 873.167,1071.5 867.833,1071.5 862.5,1071.5C 862.5,731.167 862.5,390.833 862.5,50.5C 860.901,50.7678 859.568,50.4345 858.5,49.5C 865.136,48.552 871.803,47.8854 878.5,47.5 Z"/></g>
<g><path style="opacity:1" fill="#e9dd98" d="M 1121.5,47.5 C 1134.54,48.8862 1147.54,50.5528 1160.5,52.5C 1160.83,683.569 1160.5,1314.57 1159.5,1945.5C 1146.88,1947.54 1134.22,1949.21 1121.5,1950.5C 1121.83,1713.67 1121.5,1477 1120.5,1240.5C 1127.08,1229.66 1129.75,1217.82 1128.5,1205C 1129.55,1193.7 1127.21,1183.2 1121.5,1173.5C 1121.5,1160.83 1121.5,1148.17 1121.5,1135.5C 1123.48,1134.35 1124.98,1132.69 1126,1130.5C 1127.74,1118.66 1126.24,1107.33 1121.5,1096.5C 1121.17,1012 1121.5,927.665 1122.5,843.5C 1123.33,888.096 1123.83,932.762 1124,977.5C 1125.01,981.843 1127.51,985.01 1131.5,987C 1138.3,989.244 1144.97,988.91 1151.5,986C 1153.71,984.127 1155.54,981.96 1157,979.5C 1157.67,932.167 1157.67,884.833 1157,837.5C 1155.67,824.997 1149.83,815.164 1139.5,808C 1133.87,804.35 1127.87,801.517 1121.5,799.5C 1121.5,548.833 1121.5,298.167 1121.5,47.5 Z"/></g>
<g><path style="opacity:0.987" fill="#d7c584" d="M 1288.5,41.5 C 1309.3,48.0998 1329.97,55.0998 1350.5,62.5C 1349.53,71.0823 1349.2,79.7489 1349.5,88.5C 1329.06,80.5754 1308.39,73.2421 1287.5,66.5C 1287.2,58.0817 1287.53,49.7483 1288.5,41.5 Z"/></g>
<g><path style="opacity:1" fill="#e9dd98" d="M 858.5,49.5 C 859.568,50.4345 860.901,50.7678 862.5,50.5C 862.5,390.833 862.5,731.167 862.5,1071.5C 848.402,1070.97 834.402,1071.64 820.5,1073.5C 820.5,1017.83 820.5,962.167 820.5,906.5C 822.167,906.5 823.833,906.5 825.5,906.5C 825.333,930.836 825.5,955.169 826,979.5C 827.105,982.937 829.272,985.437 832.5,987C 838.5,987.667 844.5,987.667 850.5,987C 853.625,986.021 856.125,984.187 858,981.5C 859.652,933.225 859.985,884.892 859,836.5C 856.862,823.71 850.362,813.877 839.5,807C 833.377,803.603 827.044,800.77 820.5,798.5C 820.168,551.097 820.501,303.764 821.5,56.5C 833.619,53.6443 845.952,51.311 858.5,49.5 Z"/></g>
<g><path style="opacity:0.997" fill="#d7c584" d="M 697.5,45.5 C 698.092,54.434 697.425,63.1007 695.5,71.5C 675.749,78.4195 656.082,85.7528 636.5,93.5C 635.53,84.9177 635.197,76.2511 635.5,67.5C 656.096,59.9681 676.762,52.6347 697.5,45.5 Z"/></g>
<g><path style="opacity:1" fill="#e6da95" d="M 1160.5,52.5 C 1161.17,52.5 1161.5,52.8333 1161.5,53.5C 1162.83,368.46 1163.5,683.627 1163.5,999C 1163.5,1314.37 1162.83,1629.54 1161.5,1944.5C 1161.16,1945.34 1160.49,1945.67 1159.5,1945.5C 1160.5,1314.57 1160.83,683.569 1160.5,52.5 Z"/></g>
<g><path style="opacity:1" fill="#e4d793" d="M 1161.5,53.5 C 1176.29,55.5243 1190.95,58.191 1205.5,61.5C 1205.17,315.667 1205.5,569.667 1206.5,823.5C 1200.34,836.054 1200.01,848.72 1205.5,861.5C 1205.17,872.014 1205.51,882.347 1206.5,892.5C 1197.78,904.523 1194.12,918.023 1195.5,933C 1195,942.715 1196.16,952.215 1199,961.5C 1201.02,965.542 1203.52,969.209 1206.5,972.5C 1205.5,1005.33 1205.17,1038.33 1205.5,1071.5C 1204.67,1055.34 1204.17,1039.01 1204,1022.5C 1201.9,1013.75 1196.23,1009.42 1187,1009.5C 1180.38,1009.01 1175.05,1011.35 1171,1016.5C 1169.84,1056.11 1169.34,1095.78 1169.5,1135.5C 1169.67,1174.17 1169.83,1212.83 1170,1251.5C 1170.62,1256.78 1173.45,1260.28 1178.5,1262C 1183.83,1262.67 1189.17,1262.67 1194.5,1262C 1199.88,1259.96 1203.04,1256.13 1204,1250.5C 1204.17,1200.66 1204.67,1151 1205.5,1101.5C 1205.83,1379.9 1205.5,1658.24 1204.5,1936.5C 1190.31,1939.92 1175.98,1942.59 1161.5,1944.5C 1162.83,1629.54 1163.5,1314.37 1163.5,999C 1163.5,683.627 1162.83,368.46 1161.5,53.5 Z"/></g>
<g><path style="opacity:1" fill="#e4d793" d="M 821.5,56.5 C 820.501,303.764 820.168,551.097 820.5,798.5C 800.194,797.547 779.86,797.214 759.5,797.5C 759.5,796.833 759.833,796.5 760.5,796.5C 766.5,796.5 772.5,796.5 778.5,796.5C 778.832,552.764 778.499,309.097 777.5,65.5C 791.932,61.4801 806.599,58.4801 821.5,56.5 Z"/></g>
<g><path style="opacity:0.999" fill="#d1bd7d" d="M 1350.5,62.5 C 1367.46,68.9854 1384.13,75.9854 1400.5,83.5C 1400.2,92.2511 1400.53,100.918 1401.5,109.5C 1384.33,102.109 1366.99,95.1088 1349.5,88.5C 1349.2,79.7489 1349.53,71.0823 1350.5,62.5 Z"/></g>
<g><path style="opacity:1" fill="#e1d28f" d="M 1205.5,61.5 C 1212.06,62.7212 1218.39,64.3878 1224.5,66.5C 1224.17,312.667 1224.5,558.667 1225.5,804.5C 1217.55,809.114 1211.22,815.447 1206.5,823.5C 1205.5,569.667 1205.17,315.667 1205.5,61.5 Z"/></g>
<g><path style="opacity:1" fill="#dfd08d" d="M 1224.5,66.5 C 1232.84,67.584 1240.84,69.584 1248.5,72.5C 1247.84,314.375 1248.5,556.042 1250.5,797.5C 1241.72,798.431 1233.38,800.764 1225.5,804.5C 1224.5,558.667 1224.17,312.667 1224.5,66.5 Z"/></g>
<g><path style="opacity:0.998" fill="#d1bd7d" d="M 635.5,67.5 C 635.197,76.2511 635.53,84.9177 636.5,93.5C 619.826,100.502 603.16,107.502 586.5,114.5C 585.806,106.266 585.139,97.9326 584.5,89.5C 601.335,81.7774 618.335,74.444 635.5,67.5 Z"/></g>
<g><path style="opacity:1" fill="#e1d28f" d="M 777.5,65.5 C 778.499,309.097 778.832,552.764 778.5,796.5C 772.5,796.5 766.5,796.5 760.5,796.5C 760.5,554.167 760.5,311.833 760.5,69.5C 766.033,67.7005 771.699,66.3671 777.5,65.5 Z"/></g>
<g><path style="opacity:1" fill="#dfd08d" d="M 760.5,69.5 C 760.5,311.833 760.5,554.167 760.5,796.5C 759.833,796.5 759.5,796.833 759.5,797.5C 751.78,798.073 744.446,800.073 737.5,803.5C 736.5,561.001 736.167,318.334 736.5,75.5C 744.5,73.5 752.5,71.5 760.5,69.5 Z"/></g>
<g><path style="opacity:1" fill="#dccc8a" d="M 1248.5,72.5 C 1255.24,73.8527 1261.91,75.5193 1268.5,77.5C 1267.5,317.097 1267.17,556.764 1267.5,796.5C 1271.17,796.5 1274.83,796.5 1278.5,796.5C 1284.83,796.5 1291.17,796.5 1297.5,796.5C 1299.41,796.216 1301.08,796.549 1302.5,797.5C 1285.17,797.5 1267.83,797.5 1250.5,797.5C 1248.5,556.042 1247.84,314.375 1248.5,72.5 Z"/></g>
<g><path style="opacity:1" fill="#dccc8a" d="M 736.5,75.5 C 736.167,318.334 736.5,561.001 737.5,803.5C 729.634,807.695 722.967,813.362 717.5,820.5C 717.832,574.097 717.499,327.764 716.5,81.5C 723.274,79.8072 729.941,77.8072 736.5,75.5 Z"/></g>
<g><path style="opacity:1" fill="#dbca88" d="M 1268.5,77.5 C 1272.38,78.4576 1276.05,79.7909 1279.5,81.5C 1278.5,319.666 1278.17,557.999 1278.5,796.5C 1274.83,796.5 1271.17,796.5 1267.5,796.5C 1267.17,556.764 1267.5,317.097 1268.5,77.5 Z"/></g>
<g><path style="opacity:1" fill="#d9c886" d="M 1279.5,81.5 C 1286.17,82.7238 1292.5,84.7238 1298.5,87.5C 1297.5,323.666 1297.17,559.999 1297.5,796.5C 1291.17,796.5 1284.83,796.5 1278.5,796.5C 1278.17,557.999 1278.5,319.666 1279.5,81.5 Z"/></g>
<g><path style="opacity:1" fill="#dbcb88" d="M 716.5,81.5 C 717.499,327.764 717.832,574.097 717.5,820.5C 711.802,831.465 709.968,843.132 712,855.5C 713.5,859.667 716.333,862.5 720.5,864C 725.823,864.499 731.156,864.666 736.5,864.5C 736.5,869.5 736.5,874.5 736.5,879.5C 719.713,885.953 709.38,897.953 705.5,915.5C 706.166,638.831 705.499,362.498 703.5,86.5C 707.684,84.6571 712.018,82.9904 716.5,81.5 Z"/></g>
<g><path style="opacity:0.998" fill="#ccb778" d="M 1400.5,83.5 C 1413.26,88.3827 1425.59,94.0493 1437.5,100.5C 1437.83,109.349 1437.49,118.016 1436.5,126.5C 1424.64,121.07 1412.97,115.403 1401.5,109.5C 1400.53,100.918 1400.2,92.2511 1400.5,83.5 Z"/></g>
<g><path style="opacity:1" fill="#d9c886" d="M 703.5,86.5 C 705.499,362.498 706.166,638.831 705.5,915.5C 705.5,926.167 705.5,936.833 705.5,947.5C 705.5,988.833 705.5,1030.17 705.5,1071.5C 699.5,1071.5 693.5,1071.5 687.5,1071.5C 688.166,744.832 687.499,418.498 685.5,92.5C 691.196,89.9016 697.196,87.9016 703.5,86.5 Z"/></g>
<g><path style="opacity:1" fill="#d7c684" d="M 1298.5,87.5 C 1305.77,89.2576 1312.77,91.591 1319.5,94.5C 1318.17,330.069 1318.17,565.736 1319.5,801.5C 1314.08,799.207 1308.42,797.873 1302.5,797.5C 1301.08,796.549 1299.41,796.216 1297.5,796.5C 1297.17,559.999 1297.5,323.666 1298.5,87.5 Z"/></g>
<g><path style="opacity:0.999" fill="#ccb778" d="M 584.5,89.5 C 585.139,97.9326 585.806,106.266 586.5,114.5C 574.151,121.341 561.484,127.675 548.5,133.5C 547.53,124.918 547.197,116.251 547.5,107.5C 559.413,100.745 571.747,94.7446 584.5,89.5 Z"/></g>
<g><path style="opacity:1" fill="#d7c685" d="M 685.5,92.5 C 687.499,418.498 688.166,744.832 687.5,1071.5C 680.5,1071.5 673.5,1071.5 666.5,1071.5C 666.5,990.5 666.5,909.5 666.5,828.5C 659.529,827.71 652.529,827.377 645.5,827.5C 640.5,827.5 635.5,827.5 630.5,827.5C 644.994,826.669 659.661,826.169 674.5,826C 678.307,824.86 680.807,822.36 682,818.5C 683.693,811.156 682.193,804.656 677.5,799C 662.905,797.55 648.239,797.05 633.5,797.5C 637.298,796.517 641.298,796.183 645.5,796.5C 652.5,796.5 659.5,796.5 666.5,796.5C 666.5,563.833 666.5,331.167 666.5,98.5C 672.742,96.2126 679.075,94.2126 685.5,92.5 Z"/></g>
<g><path style="opacity:1" fill="#d5c382" d="M 1319.5,94.5 C 1326.56,96.6318 1333.56,98.9651 1340.5,101.5C 1339.5,339.097 1339.17,576.764 1339.5,814.5C 1333.45,809.145 1326.78,804.811 1319.5,801.5C 1318.17,565.736 1318.17,330.069 1319.5,94.5 Z"/></g>
<g><path style="opacity:1" fill="#d5c382" d="M 666.5,98.5 C 666.5,331.167 666.5,563.833 666.5,796.5C 659.5,796.5 652.5,796.5 645.5,796.5C 645.5,566.5 645.5,336.5 645.5,106.5C 652.615,104.108 659.615,101.442 666.5,98.5 Z"/></g>
<g><path style="opacity:1" fill="#d1be7e" d="M 1340.5,101.5 C 1352.16,106.165 1363.83,110.832 1375.5,115.5C 1375.79,117.121 1376.79,118.121 1378.5,118.5C 1379.5,414.499 1379.83,710.499 1379.5,1006.5C 1381.1,1006.23 1382.43,1006.57 1383.5,1007.5C 1370.16,1006.25 1361.33,1011.91 1357,1024.5C 1354.47,1036.95 1358.64,1046.45 1369.5,1053C 1375.8,1054.78 1382.13,1054.95 1388.5,1053.5C 1388.5,1059.5 1388.5,1065.5 1388.5,1071.5C 1382.46,1070 1376.46,1070.17 1370.5,1072C 1366.94,1073.89 1364.44,1076.73 1363,1080.5C 1362.33,1137.83 1362.33,1195.17 1363,1252.5C 1364.1,1256.22 1366.27,1259.06 1369.5,1261C 1374.4,1262.33 1379.4,1262.83 1384.5,1262.5C 1383.08,1263.45 1381.41,1263.78 1379.5,1263.5C 1380.16,1469.64 1379.5,1675.64 1377.5,1881.5C 1365.24,1886.7 1352.91,1891.7 1340.5,1896.5C 1339.5,1593.57 1339.17,1290.57 1339.5,987.5C 1345.11,986.391 1348.61,983.058 1350,977.5C 1350.67,931.167 1350.67,884.833 1350,838.5C 1348.71,829.454 1345.21,821.454 1339.5,814.5C 1339.17,576.764 1339.5,339.097 1340.5,101.5 Z"/></g>
<g><path style="opacity:0.999" fill="#c8b374" d="M 1437.5,100.5 C 1447.65,104.738 1457.31,109.738 1466.5,115.5C 1466.83,123.86 1466.5,132.193 1465.5,140.5C 1463.92,139.544 1462.26,138.877 1460.5,138.5C 1452.15,134.992 1444.15,130.992 1436.5,126.5C 1437.49,118.016 1437.83,109.349 1437.5,100.5 Z"/></g>
<g><path style="opacity:1" fill="#d1be7e" d="M 645.5,106.5 C 645.5,336.5 645.5,566.5 645.5,796.5C 641.298,796.183 637.298,796.517 633.5,797.5C 623.942,797.14 614.942,799.14 606.5,803.5C 606.168,576.764 606.501,350.097 607.5,123.5C 619.866,117.32 632.533,111.653 645.5,106.5 Z"/></g>
<g><path style="opacity:0.994" fill="#c5af71" d="M 1466.5,115.5 C 1476.66,120.076 1486.32,125.409 1495.5,131.5C 1494.18,140.402 1494.18,149.402 1495.5,158.5C 1483.66,152.083 1472,145.416 1460.5,138.5C 1462.26,138.877 1463.92,139.544 1465.5,140.5C 1466.5,132.193 1466.83,123.86 1466.5,115.5 Z"/></g>
<g><path style="opacity:1" fill="#cfbb7b" d="M 1375.5,115.5 C 1379.71,117.774 1384.05,119.774 1388.5,121.5C 1388.5,417.167 1388.5,712.833 1388.5,1008.5C 1386.88,1007.96 1385.22,1007.63 1383.5,1007.5C 1382.43,1006.57 1381.1,1006.23 1379.5,1006.5C 1379.83,710.499 1379.5,414.499 1378.5,118.5C 1376.79,118.121 1375.79,117.121 1375.5,115.5 Z"/></g>
<g><path style="opacity:1" fill="#ccb779" d="M 1388.5,121.5 C 1401.27,126.717 1413.6,132.717 1425.5,139.5C 1424.5,359.333 1424.17,579.333 1424.5,799.5C 1417.27,803.124 1410.27,807.29 1403.5,812C 1398.27,817.626 1394.43,824.126 1392,831.5C 1390.86,856.799 1390.36,882.133 1390.5,907.5C 1390.35,932.214 1390.85,956.881 1392,981.5C 1395.93,987.209 1401.43,989.542 1408.5,988.5C 1415.37,989.393 1420.7,987.059 1424.5,981.5C 1424.17,1274 1424.5,1566.33 1425.5,1858.5C 1413.59,1865.26 1401.25,1871.26 1388.5,1876.5C 1388.5,1671.83 1388.5,1467.17 1388.5,1262.5C 1390,1260.82 1391.83,1259.49 1394,1258.5C 1394.75,1256.67 1395.75,1255 1397,1253.5C 1397.67,1195.83 1397.67,1138.17 1397,1080.5C 1395.31,1076.31 1392.48,1073.31 1388.5,1071.5C 1388.5,1065.5 1388.5,1059.5 1388.5,1053.5C 1398.59,1049.5 1403.59,1042 1403.5,1031C 1403.47,1020.14 1398.47,1012.64 1388.5,1008.5C 1388.5,712.833 1388.5,417.167 1388.5,121.5 Z"/></g>
<g><path style="opacity:0.997" fill="#c6b073" d="M 547.5,107.5 C 547.197,116.251 547.53,124.918 548.5,133.5C 529.505,144.159 510.505,154.825 491.5,165.5C 491.5,156.5 491.5,147.5 491.5,138.5C 509.515,127.155 528.182,116.822 547.5,107.5 Z"/></g>
<g><path style="opacity:1" fill="#cfbb7b" d="M 607.5,123.5 C 606.501,350.097 606.168,576.764 606.5,803.5C 603.339,804.913 600.339,806.58 597.5,808.5C 597.833,581.666 597.5,354.999 596.5,128.5C 599.751,126.043 603.418,124.376 607.5,123.5 Z"/></g>
<g><path style="opacity:1" fill="#ccb779" d="M 596.5,128.5 C 597.5,354.999 597.833,581.666 597.5,808.5C 589.325,815.516 584.825,824.516 584,835.5C 583.333,882.833 583.333,930.167 584,977.5C 586.565,983.567 591.065,987.234 597.5,988.5C 597.5,1024.83 597.5,1061.17 597.5,1097.5C 596.272,1101.13 595.105,1104.8 594,1108.5C 593.333,1147.5 593.333,1186.5 594,1225.5C 594.858,1230.26 596.024,1234.93 597.5,1239.5C 597.833,1449.67 597.5,1659.67 596.5,1869.5C 584.397,1864.61 572.73,1858.95 561.5,1852.5C 561.5,1283.5 561.5,714.5 561.5,145.5C 572.73,139.052 584.397,133.386 596.5,128.5 Z"/></g>
<g><path style="opacity:0.995" fill="#c2ab6e" d="M 1495.5,131.5 C 1505,136.081 1514,141.414 1522.5,147.5C 1522.8,156.584 1522.47,165.584 1521.5,174.5C 1512.55,169.529 1503.88,164.195 1495.5,158.5C 1494.18,149.402 1494.18,140.402 1495.5,131.5 Z"/></g>
<g><path style="opacity:0.995" fill="#c2ab6e" d="M 491.5,138.5 C 491.5,147.5 491.5,156.5 491.5,165.5C 483.212,171.651 474.545,177.317 465.5,182.5C 464.175,178.555 463.508,174.222 463.5,169.5C 463.667,165.167 463.833,160.833 464,156.5C 464.717,155.956 465.217,155.289 465.5,154.5C 473.824,148.668 482.491,143.335 491.5,138.5 Z"/></g>
<g><path style="opacity:1" fill="#cab577" d="M 1425.5,139.5 C 1426.61,139.557 1427.61,139.89 1428.5,140.5C 1428.17,360.001 1428.5,579.334 1429.5,798.5C 1428.08,799.451 1426.41,799.784 1424.5,799.5C 1424.17,579.333 1424.5,359.333 1425.5,139.5 Z"/></g>
<g><path style="opacity:1" fill="#c8b375" d="M 1428.5,140.5 C 1436.85,144.341 1444.85,148.674 1452.5,153.5C 1452.5,367.833 1452.5,582.167 1452.5,796.5C 1458.83,796.5 1465.17,796.5 1471.5,796.5C 1472.79,796.263 1473.79,796.596 1474.5,797.5C 1459.45,797.199 1444.45,797.532 1429.5,798.5C 1428.5,579.334 1428.17,360.001 1428.5,140.5 Z"/></g>
<g><path style="opacity:1" fill="#cab577" d="M 561.5,145.5 C 561.5,714.5 561.5,1283.5 561.5,1852.5C 559.181,1852.01 557.181,1851.01 555.5,1849.5C 556.833,1566.33 557.5,1282.83 557.5,999C 557.5,715.166 556.833,431.666 555.5,148.5C 557.181,146.992 559.181,145.992 561.5,145.5 Z"/></g>
<g><path style="opacity:1" fill="#c9b375" d="M 555.5,148.5 C 556.833,431.666 557.5,715.166 557.5,999C 557.5,1282.83 556.833,1566.33 555.5,1849.5C 547.839,1846 540.505,1842 533.5,1837.5C 533.5,1640.83 533.5,1444.17 533.5,1247.5C 541.381,1239.79 545.881,1230.46 547,1219.5C 547.667,1152.5 547.667,1085.5 547,1018.5C 541.352,1011.09 533.852,1008.43 524.5,1010.5C 527.287,1009.52 530.287,1009.19 533.5,1009.5C 533.832,963.664 533.499,917.997 532.5,872.5C 536.399,866.366 538.899,859.7 540,852.5C 540.667,827.5 540.667,802.5 540,777.5C 538.959,770.537 536.459,764.203 532.5,758.5C 533.5,559.334 533.833,360.001 533.5,160.5C 540.505,155.995 547.839,151.995 555.5,148.5 Z"/></g>
<g><path style="opacity:1" fill="#c6b072" d="M 1452.5,153.5 C 1458.78,155.975 1464.78,158.975 1470.5,162.5C 1471.5,373.793 1471.83,585.127 1471.5,796.5C 1465.17,796.5 1458.83,796.5 1452.5,796.5C 1452.5,582.167 1452.5,367.833 1452.5,153.5 Z"/></g>
<g><path style="opacity:1" fill="#c6b072" d="M 533.5,160.5 C 533.833,360.001 533.5,559.334 532.5,758.5C 527.668,751.993 521.668,746.993 514.5,743.5C 514.832,552.764 514.499,362.097 513.5,171.5C 519.873,167.313 526.539,163.647 533.5,160.5 Z"/></g>
<g><path style="opacity:0.994" fill="#bea569" d="M 1522.5,147.5 C 1539.98,157.742 1556.98,168.742 1573.5,180.5C 1573.5,190.5 1573.5,200.5 1573.5,210.5C 1556.42,198.077 1539.09,186.077 1521.5,174.5C 1522.47,165.584 1522.8,156.584 1522.5,147.5 Z"/></g>
<g><path style="opacity:1" fill="#c4ae71" d="M 1470.5,162.5 C 1473.71,164.265 1476.71,166.265 1479.5,168.5C 1479.83,378.639 1480.83,588.639 1482.5,798.5C 1479.83,798.167 1477.17,797.833 1474.5,797.5C 1473.79,796.596 1472.79,796.263 1471.5,796.5C 1471.83,585.127 1471.5,373.793 1470.5,162.5 Z"/></g>
<g><path style="opacity:1" fill="#c2ab6e" d="M 1479.5,168.5 C 1489.13,173.316 1498.46,178.649 1507.5,184.5C 1507.17,392.001 1507.5,599.334 1508.5,806.5C 1508.13,807.695 1507.3,808.361 1506,808.5C 1498.69,803.925 1490.85,800.592 1482.5,798.5C 1480.83,588.639 1479.83,378.639 1479.5,168.5 Z"/></g>
<g><path style="opacity:0.991" fill="#bea569" d="M 465.5,154.5 C 465.217,155.289 464.717,155.956 464,156.5C 463.833,160.833 463.667,165.167 463.5,169.5C 463.508,174.222 464.175,178.555 465.5,182.5C 448.175,194.497 430.842,206.497 413.5,218.5C 413.216,208.448 413.55,198.448 414.5,188.5C 430.951,176.39 447.951,165.056 465.5,154.5 Z"/></g>
<g><path style="opacity:1" fill="#c5ae71" d="M 513.5,171.5 C 514.499,362.097 514.832,552.764 514.5,743.5C 511.256,742.537 508.256,741.204 505.5,739.5C 506.168,551.598 506.835,363.598 507.5,175.5C 509.205,173.808 511.205,172.475 513.5,171.5 Z"/></g>
<g><path style="opacity:1" fill="#c3ab6f" d="M 507.5,175.5 C 506.835,363.598 506.168,551.598 505.5,739.5C 503.345,739.628 501.345,739.128 499.5,738C 464.502,737.5 429.502,737.333 394.5,737.5C 394.842,736.662 395.508,736.328 396.5,736.5C 407.833,736.5 419.167,736.5 430.5,736.5C 439.5,736.5 448.5,736.5 457.5,736.5C 464.833,736.5 472.167,736.5 479.5,736.5C 479.169,554.793 479.503,373.127 480.5,191.5C 489.363,185.903 498.363,180.57 507.5,175.5 Z"/></g>
<g><path style="opacity:0.996" fill="#ba9f65" d="M 1573.5,180.5 C 1584.83,188.833 1596.17,197.167 1607.5,205.5C 1608.79,215.628 1608.79,225.628 1607.5,235.5C 1596.19,227.191 1584.85,218.858 1573.5,210.5C 1573.5,200.5 1573.5,190.5 1573.5,180.5 Z"/></g>
<g><path style="opacity:1" fill="#c0a76b" d="M 1507.5,184.5 C 1515.22,189.018 1522.55,194.018 1529.5,199.5C 1529.17,399.001 1529.5,598.334 1530.5,797.5C 1522.81,799.336 1515.48,802.336 1508.5,806.5C 1507.5,599.334 1507.17,392.001 1507.5,184.5 Z"/></g>
<g><path style="opacity:0.998" fill="#baa065" d="M 414.5,188.5 C 413.55,198.448 413.216,208.448 413.5,218.5C 402.206,227.489 390.872,236.489 379.5,245.5C 378.527,235.916 378.194,226.25 378.5,216.5C 390.099,206.695 402.099,197.361 414.5,188.5 Z"/></g>
<g><path style="opacity:1" fill="#c0a76b" d="M 480.5,191.5 C 479.503,373.127 479.169,554.793 479.5,736.5C 472.167,736.5 464.833,736.5 457.5,736.5C 457.169,559.793 457.503,383.127 458.5,206.5C 465.796,201.513 473.13,196.513 480.5,191.5 Z"/></g>
<g><path style="opacity:1" fill="#bda468" d="M 1529.5,199.5 C 1538.99,204.746 1547.99,210.746 1556.5,217.5C 1556.5,410.5 1556.5,603.5 1556.5,796.5C 1558.17,796.5 1559.83,796.5 1561.5,796.5C 1565.04,796.187 1568.38,796.521 1571.5,797.5C 1557.83,797.5 1544.17,797.5 1530.5,797.5C 1529.5,598.334 1529.17,399.001 1529.5,199.5 Z"/></g>
<g><path style="opacity:1" fill="#bda468" d="M 458.5,206.5 C 457.503,383.127 457.169,559.793 457.5,736.5C 448.5,736.5 439.5,736.5 430.5,736.5C 430.167,566.93 430.501,397.43 431.5,228C 430.906,227.536 430.239,227.369 429.5,227.5C 438.863,220.145 448.53,213.145 458.5,206.5 Z"/></g>
<g><path style="opacity:1" fill="#b69b61" d="M 1607.5,205.5 C 1616.72,212.605 1625.72,219.938 1634.5,227.5C 1634.8,237.372 1634.46,247.372 1633.5,257.5C 1624.51,250.513 1615.85,243.179 1607.5,235.5C 1608.79,225.628 1608.79,215.628 1607.5,205.5 Z"/></g>
<g><path style="opacity:1" fill="#bba166" d="M 1556.5,217.5 C 1558.91,218.701 1560.91,220.367 1562.5,222.5C 1561.5,413.666 1561.17,604.999 1561.5,796.5C 1559.83,796.5 1558.17,796.5 1556.5,796.5C 1556.5,603.5 1556.5,410.5 1556.5,217.5 Z"/></g>
<g><path style="opacity:1" fill="#ba9f65" d="M 1562.5,222.5 C 1572.4,228.738 1581.74,235.738 1590.5,243.5C 1590.5,429.5 1590.5,615.5 1590.5,801.5C 1584.35,799.258 1578.02,797.925 1571.5,797.5C 1568.38,796.521 1565.04,796.187 1561.5,796.5C 1561.17,604.999 1561.5,413.666 1562.5,222.5 Z"/></g>
<g><path style="opacity:0.997" fill="#b3975e" d="M 1634.5,227.5 C 1646.45,236.446 1657.78,246.113 1668.5,256.5C 1668.5,267.167 1668.5,277.833 1668.5,288.5C 1656.51,278.509 1644.84,268.176 1633.5,257.5C 1634.46,247.372 1634.8,237.372 1634.5,227.5 Z"/></g>
<g><path style="opacity:1" fill="#baa065" d="M 429.5,227.5 C 430.239,227.369 430.906,227.536 431.5,228C 430.501,397.43 430.167,566.93 430.5,736.5C 419.167,736.5 407.833,736.5 396.5,736.5C 397.165,575.497 396.499,414.83 394.5,254.5C 405.617,244.776 417.283,235.776 429.5,227.5 Z"/></g>
<g><path style="opacity:0.997" fill="#b4985f" d="M 378.5,216.5 C 378.194,226.25 378.527,235.916 379.5,245.5C 359.561,262.768 339.894,280.434 320.5,298.5C 318.525,288.554 317.858,278.221 318.5,267.5C 337.319,249.006 357.319,232.006 378.5,216.5 Z"/></g>
<g><path style="opacity:1" fill="#b69b61" d="M 1590.5,243.5 C 1599.75,249.748 1608.42,256.748 1616.5,264.5C 1615.5,449.999 1615.17,635.666 1615.5,821.5C 1608.95,812.617 1600.62,805.951 1590.5,801.5C 1590.5,615.5 1590.5,429.5 1590.5,243.5 Z"/></g>
<g><path style="opacity:1" fill="#af9259" d="M 1668.5,256.5 C 1683.16,269.829 1697.5,283.496 1711.5,297.5C 1712.8,308.961 1712.8,320.295 1711.5,331.5C 1696.83,317.5 1682.5,303.167 1668.5,288.5C 1668.5,277.833 1668.5,267.167 1668.5,256.5 Z"/></g>
<g><path style="opacity:1" fill="#b69b61" d="M 394.5,254.5 C 396.499,414.83 397.165,575.497 396.5,736.5C 395.508,736.328 394.842,736.662 394.5,737.5C 386.143,738.024 380.976,742.357 379,750.5C 378.333,826.167 378.333,901.833 379,977.5C 381.524,985.518 387.024,989.185 395.5,988.5C 396.462,995.412 396.795,1002.41 396.5,1009.5C 395.209,1009.26 394.209,1009.6 393.5,1010.5C 386.732,1010.44 381.898,1013.44 379,1019.5C 378.333,1085.5 378.333,1151.5 379,1217.5C 379.881,1230.93 385.715,1241.6 396.5,1249.5C 396.168,1414.9 396.501,1580.24 397.5,1745.5C 388.65,1739.56 380.316,1732.9 372.5,1725.5C 371.501,1241.54 371.168,757.54 371.5,273.5C 378.851,266.819 386.517,260.486 394.5,254.5 Z"/></g>
<g><path style="opacity:1" fill="#b4985f" d="M 1616.5,264.5 C 1625.79,271.792 1634.79,279.458 1643.5,287.5C 1642.83,348.137 1642.17,408.804 1641.5,469.5C 1641.5,822.5 1641.5,1175.5 1641.5,1528.5C 1641.83,1589.13 1642.83,1649.47 1644.5,1709.5C 1635.49,1717.85 1626.15,1725.85 1616.5,1733.5C 1615.5,1484.67 1615.17,1235.67 1615.5,986.5C 1617.49,984.535 1618.99,982.202 1620,979.5C 1620.67,931.5 1620.67,883.5 1620,835.5C 1618.79,830.712 1617.29,826.045 1615.5,821.5C 1615.17,635.666 1615.5,449.999 1616.5,264.5 Z"/></g>
<g><path style="opacity:1" fill="#af9259" d="M 318.5,267.5 C 317.858,278.221 318.525,288.554 320.5,298.5C 305.473,313.86 290.473,329.193 275.5,344.5C 275.5,333.167 275.5,321.833 275.5,310.5C 288.833,295.167 303.167,280.833 318.5,267.5 Z"/></g>
<g><path style="opacity:1" fill="#b4985f" d="M 371.5,273.5 C 371.168,757.54 371.501,1241.54 372.5,1725.5C 362.84,1717.17 353.506,1708.51 344.5,1699.5C 345.833,1232.5 345.833,765.5 344.5,298.5C 353.173,289.827 362.173,281.494 371.5,273.5 Z"/></g>
<g><path style="opacity:1" fill="#b2955c" d="M 1643.5,287.5 C 1645.83,289.167 1647.83,291.167 1649.5,293.5C 1649.5,763.833 1649.5,1234.17 1649.5,1704.5C 1648.17,1706.5 1646.5,1708.17 1644.5,1709.5C 1642.83,1649.47 1641.83,1589.13 1641.5,1528.5C 1641.5,1175.5 1641.5,822.5 1641.5,469.5C 1642.17,408.804 1642.83,348.137 1643.5,287.5 Z"/></g>
<g><path style="opacity:1" fill="#b0935a" d="M 1649.5,293.5 C 1661.47,303.801 1672.8,314.801 1683.5,326.5C 1683.5,774.833 1683.5,1223.17 1683.5,1671.5C 1672.8,1683.2 1661.47,1694.2 1649.5,1704.5C 1649.5,1234.17 1649.5,763.833 1649.5,293.5 Z"/></g>
<g><path style="opacity:1" fill="#b2965d" d="M 344.5,298.5 C 345.833,765.5 345.833,1232.5 344.5,1699.5C 341.553,1698.22 339.219,1696.22 337.5,1693.5C 338.499,1230.24 338.833,766.903 338.5,303.5C 339.891,301.11 341.891,299.443 344.5,298.5 Z"/></g>
<g><path style="opacity:0.994" fill="#aa8b54" d="M 1711.5,297.5 C 1730.58,316.579 1748.58,336.579 1765.5,357.5C 1765.46,358.756 1765.96,359.756 1767,360.5C 1767.5,372.495 1767.67,384.495 1767.5,396.5C 1748.86,374.859 1730.2,353.192 1711.5,331.5C 1712.8,320.295 1712.8,308.961 1711.5,297.5 Z"/></g>
<g><path style="opacity:1" fill="#b0935a" d="M 338.5,303.5 C 338.833,766.903 338.499,1230.24 337.5,1693.5C 326.167,1682.83 315.167,1671.83 304.5,1660.5C 304.5,1219.5 304.5,778.5 304.5,337.5C 315.5,325.833 326.833,314.5 338.5,303.5 Z"/></g>
<g><path style="opacity:0.99" fill="#aa8c54" d="M 275.5,310.5 C 275.5,321.833 275.5,333.167 275.5,344.5C 261.394,361.725 247.061,378.725 232.5,395.5C 231.197,383.295 231.197,370.961 232.5,358.5C 239.789,349.373 247.289,340.373 255,331.5C 261.39,324.039 268.223,317.039 275.5,310.5 Z"/></g>
<g><path style="opacity:1" fill="#ad8f57" d="M 1683.5,326.5 C 1686.17,328.5 1688.5,330.833 1690.5,333.5C 1691.5,776.794 1691.83,1220.13 1691.5,1663.5C 1689.17,1666.5 1686.5,1669.17 1683.5,1671.5C 1683.5,1223.17 1683.5,774.833 1683.5,326.5 Z"/></g>
<g><path style="opacity:1" fill="#ab8c55" d="M 1690.5,333.5 C 1706.21,349.544 1721.21,366.211 1735.5,383.5C 1734.5,794.097 1734.17,1204.76 1734.5,1615.5C 1720.88,1632.12 1706.55,1648.12 1691.5,1663.5C 1691.83,1220.13 1691.5,776.794 1690.5,333.5 Z"/></g>
<g><path style="opacity:1" fill="#ae9058" d="M 304.5,337.5 C 304.5,778.5 304.5,1219.5 304.5,1660.5C 301.608,1657.73 298.942,1654.73 296.5,1651.5C 296.5,1216.5 296.5,781.5 296.5,346.5C 298.942,343.271 301.608,340.271 304.5,337.5 Z"/></g>
<g><path style="opacity:1" fill="#aa8c55" d="M 296.5,346.5 C 296.5,781.5 296.5,1216.5 296.5,1651.5C 280.344,1635.69 265.678,1618.69 252.5,1600.5C 253.833,1199.5 253.833,798.5 252.5,397.5C 265.678,379.314 280.344,362.314 296.5,346.5 Z"/></g>
<g><path style="opacity:0.99" fill="#a5854f" d="M 1765.5,357.5 C 1772.47,365.308 1779.3,373.308 1786,381.5C 1791.01,387.54 1795.51,393.874 1799.5,400.5C 1799.83,413.344 1799.5,426.011 1798.5,438.5C 1788.17,424.509 1777.84,410.509 1767.5,396.5C 1767.67,384.495 1767.5,372.495 1767,360.5C 1765.96,359.756 1765.46,358.756 1765.5,357.5 Z"/></g>
<g><path style="opacity:0.992" fill="#a68650" d="M 232.5,358.5 C 231.197,370.961 231.197,383.295 232.5,395.5C 218.106,414.559 204.106,433.892 190.5,453.5C 189.851,440.402 189.184,427.402 188.5,414.5C 202.213,395.068 216.88,376.402 232.5,358.5 Z"/></g>
<g><path style="opacity:1" fill="#a88952" d="M 1735.5,383.5 C 1738.52,386.52 1741.18,389.854 1743.5,393.5C 1744.5,796.794 1744.83,1200.13 1744.5,1603.5C 1741.51,1607.82 1738.18,1611.82 1734.5,1615.5C 1734.17,1204.76 1734.5,794.097 1735.5,383.5 Z"/></g>
<g><path style="opacity:1" fill="#a5854f" d="M 1743.5,393.5 C 1755.23,406.902 1766.23,420.902 1776.5,435.5C 1775.5,811 1775.17,1186.67 1775.5,1562.5C 1766.31,1577.02 1755.98,1590.69 1744.5,1603.5C 1744.83,1200.13 1744.5,796.794 1743.5,393.5 Z"/></g>
<g><path style="opacity:1" fill="#a88851" d="M 252.5,397.5 C 253.833,798.5 253.833,1199.5 252.5,1600.5C 249.355,1597.54 246.688,1594.21 244.5,1590.5C 243.167,1196.17 243.167,801.833 244.5,407.5C 246.688,403.793 249.355,400.46 252.5,397.5 Z"/></g>
<g><path style="opacity:1" fill="#a5854f" d="M 244.5,407.5 C 243.167,801.833 243.167,1196.17 244.5,1590.5C 233.193,1577.22 222.86,1563.22 213.5,1548.5C 213.5,1182.17 213.5,815.833 213.5,449.5C 222.86,434.78 233.193,420.78 244.5,407.5 Z"/></g>
<g><path style="opacity:1" fill="#a3824c" d="M 1776.5,435.5 C 1781.42,442.357 1786.09,449.357 1790.5,456.5C 1790.5,818.167 1790.5,1179.83 1790.5,1541.5C 1786.23,1549.04 1781.23,1556.04 1775.5,1562.5C 1775.17,1186.67 1775.5,811 1776.5,435.5 Z"/></g>
<g><path style="opacity:0.994" fill="#a07f4a" d="M 1799.5,400.5 C 1818.88,424.912 1836.55,450.579 1852.5,477.5C 1851.82,492.069 1851.15,506.735 1850.5,521.5C 1833.97,493.306 1816.63,465.639 1798.5,438.5C 1799.5,426.011 1799.83,413.344 1799.5,400.5 Z"/></g>
<g><path style="opacity:1" fill="#a3824c" d="M 213.5,449.5 C 213.5,815.833 213.5,1182.17 213.5,1548.5C 207.726,1541.72 202.726,1534.39 198.5,1526.5C 198.5,1174.83 198.5,823.167 198.5,471.5C 202.726,463.613 207.726,456.28 213.5,449.5 Z"/></g>
<g><path style="opacity:0.995" fill="#a07f4a" d="M 188.5,414.5 C 189.184,427.402 189.851,440.402 190.5,453.5C 172.147,481.538 154.814,510.204 138.5,539.5C 137.833,524.5 137.167,509.5 136.5,494.5C 152.652,467.025 169.986,440.358 188.5,414.5 Z"/></g>
<g><path style="opacity:1" fill="#a2804b" d="M 1790.5,456.5 C 1795.56,462.275 1799.9,468.609 1803.5,475.5C 1802.5,824.666 1802.17,1174 1802.5,1523.5C 1798.99,1529.85 1794.99,1535.85 1790.5,1541.5C 1790.5,1179.83 1790.5,818.167 1790.5,456.5 Z"/></g>
<g><path style="opacity:1" fill="#a2804b" d="M 198.5,471.5 C 198.5,823.167 198.5,1174.83 198.5,1526.5C 193.809,1520.46 189.475,1514.13 185.5,1507.5C 186.833,1168.5 186.833,829.5 185.5,490.5C 189.475,483.869 193.809,477.536 198.5,471.5 Z"/></g>
<g><path style="opacity:1" fill="#9f7d48" d="M 1803.5,475.5 C 1811.99,487.793 1819.99,500.459 1827.5,513.5C 1826.17,837.167 1826.17,1160.83 1827.5,1484.5C 1819.9,1498.05 1811.57,1511.05 1802.5,1523.5C 1802.17,1174 1802.5,824.666 1803.5,475.5 Z"/></g>
<g><path style="opacity:1" fill="#9f7d48" d="M 185.5,490.5 C 186.833,829.5 186.833,1168.5 185.5,1507.5C 177.316,1494.47 169.649,1481.13 162.5,1467.5C 162.5,1155.17 162.5,842.833 162.5,530.5C 169.649,516.868 177.316,503.534 185.5,490.5 Z"/></g>
<g><path style="opacity:0.999" fill="#9c7945" d="M 1852.5,477.5 C 1948.12,635.369 1997.12,806.703 1999.5,991.5C 1999.5,996.5 1999.5,1001.5 1999.5,1006.5C 1997.49,1173.87 1956.66,1331.2 1877,1478.5C 1868.9,1493.73 1860.06,1508.39 1850.5,1522.5C 1851.81,1507.04 1851.81,1491.71 1850.5,1476.5C 1964.75,1267.66 2000.25,1045.99 1957,811.5C 1936.8,709.055 1901.3,612.388 1850.5,521.5C 1851.15,506.735 1851.82,492.069 1852.5,477.5 Z"/></g>
<g><path style="opacity:0.999" fill="#9d7b46" d="M 1827.5,513.5 C 1834.26,524.931 1840.6,536.598 1846.5,548.5C 1845.17,848.833 1845.17,1149.17 1846.5,1449.5C 1840.6,1461.4 1834.26,1473.07 1827.5,1484.5C 1826.17,1160.83 1826.17,837.167 1827.5,513.5 Z"/></g>
<g><path style="opacity:0.999" fill="#9c7945" d="M 136.5,494.5 C 137.167,509.5 137.833,524.5 138.5,539.5C 26.7549,755.227 -3.07839,981.894 49,1219.5C 68.8248,1303.82 98.9915,1384.15 139.5,1460.5C 138.883,1460.39 138.383,1460.06 138,1459.5C 137.831,1474.34 137.331,1489.01 136.5,1503.5C 47.5102,1350.22 1.84352,1184.88 -0.5,1007.5C -0.5,1001.83 -0.5,996.167 -0.5,990.5C 1.84352,813.118 47.5102,647.785 136.5,494.5 Z"/></g>
<g><path style="opacity:0.999" fill="#9d7b46" d="M 162.5,530.5 C 162.5,842.833 162.5,1155.17 162.5,1467.5C 155.408,1456.32 149.074,1444.65 143.5,1432.5C 144.833,1143.5 144.833,854.5 143.5,565.5C 149.074,553.346 155.408,541.679 162.5,530.5 Z"/></g>
<g><path style="opacity:1" fill="#9c7945" d="M 1846.5,548.5 C 1931.67,709.208 1968.5,880.542 1957,1062.5C 1947.97,1199.65 1911.14,1328.65 1846.5,1449.5C 1845.17,1149.17 1845.17,848.833 1846.5,548.5 Z"/></g>
<g><path style="opacity:1" fill="#9c7945" d="M 143.5,565.5 C 144.833,854.5 144.833,1143.5 143.5,1432.5C 64.8054,1276.2 30.9721,1110.53 42,935.5C 50.5554,805.033 84.3887,681.699 143.5,565.5 Z"/></g>
<g><path style="opacity:1" fill="#fefefe" d="M 1032.5,735.5 C 1036.88,737.388 1039.71,740.721 1041,745.5C 1041.5,762.497 1041.67,779.497 1041.5,796.5C 1064.33,797.498 1087.33,797.831 1110.5,797.5C 1114.32,797.414 1117.99,798.081 1121.5,799.5C 1127.87,801.517 1133.87,804.35 1139.5,808C 1149.83,815.164 1155.67,824.997 1157,837.5C 1157.67,884.833 1157.67,932.167 1157,979.5C 1155.54,981.96 1153.71,984.127 1151.5,986C 1144.97,988.91 1138.3,989.244 1131.5,987C 1127.51,985.01 1125.01,981.843 1124,977.5C 1123.83,932.762 1123.33,888.096 1122.5,843.5C 1120.8,834.462 1115.46,829.129 1106.5,827.5C 1084.83,826.167 1063.17,826.167 1041.5,827.5C 1041.67,877.168 1041.5,926.834 1041,976.5C 1040.19,981.804 1037.35,985.471 1032.5,987.5C 1029.68,987.869 1026.85,988.202 1024,988.5C 1015.59,988.81 1009.93,985.144 1007,977.5C 1006.33,900.5 1006.33,823.5 1007,746.5C 1007.81,742.383 1009.97,739.216 1013.5,737C 1019.74,735.63 1026.07,735.13 1032.5,735.5 Z"/></g>
<g><path style="opacity:1" fill="#fefefd" d="M 394.5,737.5 C 429.502,737.333 464.502,737.5 499.5,738C 501.345,739.128 503.345,739.628 505.5,739.5C 508.256,741.204 511.256,742.537 514.5,743.5C 521.668,746.993 527.668,751.993 532.5,758.5C 536.459,764.203 538.959,770.537 540,777.5C 540.667,802.5 540.667,827.5 540,852.5C 538.899,859.7 536.399,866.366 532.5,872.5C 525.358,881.563 516.358,887.896 505.5,891.5C 503.436,891.687 501.436,892.187 499.5,893C 481.17,893.5 462.836,893.667 444.5,893.5C 442.321,893.16 440.488,892.16 439,890.5C 435.007,882.934 434.674,875.268 438,867.5C 440.285,864.108 443.452,862.441 447.5,862.5C 461.171,862.667 474.837,862.5 488.5,862C 496.686,859.472 501.519,853.972 503,845.5C 503.966,824.103 503.633,802.769 502,781.5C 499.737,774.903 495.237,770.736 488.5,769C 464.169,768.5 439.836,768.333 415.5,768.5C 415.5,837.833 415.5,907.167 415.5,976.5C 414.795,983.04 411.129,986.874 404.5,988C 401.518,988.498 398.518,988.665 395.5,988.5C 387.024,989.185 381.524,985.518 379,977.5C 378.333,901.833 378.333,826.167 379,750.5C 380.976,742.357 386.143,738.024 394.5,737.5 Z"/></g>
<g><path style="opacity:1" fill="#fefefe" d="M 932.5,749.5 C 936.479,751.315 939.312,754.315 941,758.5C 941.5,771.496 941.667,784.496 941.5,797.5C 950.5,797.5 959.5,797.5 968.5,797.5C 971.504,797.722 974.171,798.722 976.5,800.5C 980.455,808.103 980.455,815.769 976.5,823.5C 975.317,824.504 973.984,825.338 972.5,826C 962.172,826.5 951.839,826.666 941.5,826.5C 941.028,867.54 941.528,908.54 943,949.5C 944.193,953.36 946.693,955.86 950.5,957C 957.167,957.333 963.833,957.667 970.5,958C 972.641,958.573 974.641,959.406 976.5,960.5C 980.396,968.458 980.396,976.458 976.5,984.5C 974.86,985.32 973.193,986.153 971.5,987C 964.508,987.5 957.508,987.666 950.5,987.5C 944.427,986.479 938.427,984.812 932.5,982.5C 923.286,979.415 916.286,973.748 911.5,965.5C 909.074,960.468 907.574,955.134 907,949.5C 906.5,908.501 906.333,867.501 906.5,826.5C 900.048,826.916 893.715,826.416 887.5,825C 885.951,823.786 884.785,822.286 884,820.5C 879.338,801.326 886.838,793.659 906.5,797.5C 906.333,784.496 906.5,771.496 907,758.5C 907.904,755.767 909.404,753.433 911.5,751.5C 918.22,748.395 925.22,747.728 932.5,749.5 Z"/></g>
<g><path style="opacity:1" fill="#bba167" d="M 430.5,769.5 C 430.833,922.668 430.5,1075.67 429.5,1228.5C 422.113,1226.27 417.613,1221.27 416,1213.5C 415.667,1148.83 415.333,1084.17 415,1019.5C 413.412,1014.95 410.245,1012.11 405.5,1011C 401.514,1010.5 397.514,1010.33 393.5,1010.5C 394.209,1009.6 395.209,1009.26 396.5,1009.5C 396.795,1002.41 396.462,995.412 395.5,988.5C 398.518,988.665 401.518,988.498 404.5,988C 411.129,986.874 414.795,983.04 415.5,976.5C 416.499,907.669 416.833,838.669 416.5,769.5C 421.167,769.5 425.833,769.5 430.5,769.5 Z"/></g>
<g><path style="opacity:1" fill="#bda468" d="M 430.5,769.5 C 439.5,769.5 448.5,769.5 457.5,769.5C 457.5,800.167 457.5,830.833 457.5,861.5C 453.958,861.187 450.625,861.521 447.5,862.5C 443.452,862.441 440.285,864.108 438,867.5C 434.674,875.268 435.007,882.934 439,890.5C 440.488,892.16 442.321,893.16 444.5,893.5C 448.634,894.485 452.968,894.818 457.5,894.5C 457.5,1006.17 457.5,1117.83 457.5,1229.5C 447.985,1229.83 438.652,1229.49 429.5,1228.5C 430.5,1075.67 430.833,922.668 430.5,769.5 Z"/></g>
<g><path style="opacity:1" fill="#c6b076" d="M 447.5,862.5 C 450.625,861.521 453.958,861.187 457.5,861.5C 464.833,861.5 472.167,861.5 479.5,861.5C 479.5,830.833 479.5,800.167 479.5,769.5C 472.167,769.5 464.833,769.5 457.5,769.5C 448.5,769.5 439.5,769.5 430.5,769.5C 425.833,769.5 421.167,769.5 416.5,769.5C 416.833,838.669 416.499,907.669 415.5,976.5C 415.5,907.167 415.5,837.833 415.5,768.5C 439.836,768.333 464.169,768.5 488.5,769C 495.237,770.736 499.737,774.903 502,781.5C 503.633,802.769 503.966,824.103 503,845.5C 501.519,853.972 496.686,859.472 488.5,862C 474.837,862.5 461.171,862.667 447.5,862.5 Z"/></g>
<g><path style="opacity:1" fill="#c0a86c" d="M 457.5,769.5 C 464.833,769.5 472.167,769.5 479.5,769.5C 479.5,800.167 479.5,830.833 479.5,861.5C 472.167,861.5 464.833,861.5 457.5,861.5C 457.5,830.833 457.5,800.167 457.5,769.5 Z"/></g>
<g><path style="opacity:1" fill="#fefdfc" d="M 633.5,797.5 C 648.239,797.05 662.905,797.55 677.5,799C 682.193,804.656 683.693,811.156 682,818.5C 680.807,822.36 678.307,824.86 674.5,826C 659.661,826.169 644.994,826.669 630.5,827.5C 624.232,827.935 620.732,831.268 620,837.5C 619.667,884.167 619.333,930.833 619,977.5C 617.9,981.222 615.734,984.056 612.5,986C 607.705,988.033 602.705,988.866 597.5,988.5C 591.065,987.234 586.565,983.567 584,977.5C 583.333,930.167 583.333,882.833 584,835.5C 584.825,824.516 589.325,815.516 597.5,808.5C 600.339,806.58 603.339,804.913 606.5,803.5C 614.942,799.14 623.942,797.14 633.5,797.5 Z"/></g>
<g><path style="opacity:1" fill="#fefefe" d="M 759.5,797.5 C 779.86,797.214 800.194,797.547 820.5,798.5C 827.044,800.77 833.377,803.603 839.5,807C 850.362,813.877 856.862,823.71 859,836.5C 859.985,884.892 859.652,933.225 858,981.5C 856.125,984.187 853.625,986.021 850.5,987C 844.5,987.667 838.5,987.667 832.5,987C 829.272,985.437 827.105,982.937 826,979.5C 825.5,955.169 825.333,930.836 825.5,906.5C 823.833,906.5 822.167,906.5 820.5,906.5C 806.5,906.5 792.5,906.5 778.5,906.5C 769.827,906.334 761.16,906.5 752.5,907C 746.39,910.351 742.556,915.518 741,922.5C 740.13,930.897 740.463,939.23 742,947.5C 744.226,951.868 747.726,954.702 752.5,956C 761.16,956.5 769.827,956.666 778.5,956.5C 786.917,956.094 795.251,956.594 803.5,958C 811.489,966.946 811.489,975.946 803.5,985C 795.251,986.406 786.917,986.906 778.5,986.5C 772.5,986.5 766.5,986.5 760.5,986.5C 752.341,986.62 744.341,985.62 736.5,983.5C 728.16,980.581 720.66,976.248 714,970.5C 708.864,963.559 706.031,955.892 705.5,947.5C 705.5,936.833 705.5,926.167 705.5,915.5C 709.38,897.953 719.713,885.953 736.5,879.5C 750.343,876.803 764.343,875.803 778.5,876.5C 794.167,876.5 809.833,876.5 825.5,876.5C 825.667,865.495 825.5,854.495 825,843.5C 823.071,832.57 816.571,827.07 805.5,827C 790.661,826.172 775.994,826.339 761.5,827.5C 754.148,828.344 749.315,832.344 747,839.5C 749.277,850.542 745.777,858.876 736.5,864.5C 731.156,864.666 725.823,864.499 720.5,864C 716.333,862.5 713.5,859.667 712,855.5C 709.968,843.132 711.802,831.465 717.5,820.5C 722.967,813.362 729.634,807.695 737.5,803.5C 744.446,800.073 751.78,798.073 759.5,797.5 Z"/></g>
<g><path style="opacity:1" fill="#fefefd" d="M 1250.5,797.5 C 1267.83,797.5 1285.17,797.5 1302.5,797.5C 1308.42,797.873 1314.08,799.207 1319.5,801.5C 1326.78,804.811 1333.45,809.145 1339.5,814.5C 1345.21,821.454 1348.71,829.454 1350,838.5C 1350.67,884.833 1350.67,931.167 1350,977.5C 1348.61,983.058 1345.11,986.391 1339.5,987.5C 1337.56,988.15 1335.56,988.483 1333.5,988.5C 1328.5,988.747 1323.83,987.747 1319.5,985.5C 1318.35,983.193 1317.18,980.86 1316,978.5C 1315.5,954.502 1315.33,930.502 1315.5,906.5C 1303.17,906.5 1290.83,906.5 1278.5,906.5C 1265.78,906.102 1253.11,906.602 1240.5,908C 1232.98,915.214 1229.98,924.047 1231.5,934.5C 1229.26,944.852 1232.92,952.018 1242.5,956C 1254.5,956.5 1266.5,956.667 1278.5,956.5C 1297.71,954.876 1303.88,963.209 1297,981.5C 1295.83,982.667 1294.67,983.833 1293.5,985C 1288.63,986.388 1283.63,986.888 1278.5,986.5C 1268.5,986.5 1258.5,986.5 1248.5,986.5C 1232.89,986.406 1218.89,981.74 1206.5,972.5C 1203.52,969.209 1201.02,965.542 1199,961.5C 1196.16,952.215 1195,942.715 1195.5,933C 1194.12,918.023 1197.78,904.523 1206.5,892.5C 1218.41,881.86 1232.41,876.527 1248.5,876.5C 1258.5,876.5 1268.5,876.5 1278.5,876.5C 1290.83,876.5 1303.17,876.5 1315.5,876.5C 1315.67,864.495 1315.5,852.495 1315,840.5C 1312.41,833.572 1307.57,829.072 1300.5,827C 1295.85,826.501 1291.18,826.334 1286.5,826.5C 1276.16,826.334 1265.83,826.5 1255.5,827C 1252.96,827.186 1250.63,827.686 1248.5,828.5C 1242.23,829.971 1238.39,833.971 1237,840.5C 1239.21,860.614 1230.38,868.447 1210.5,864C 1208.92,862.906 1207.26,862.072 1205.5,861.5C 1200.01,848.72 1200.34,836.054 1206.5,823.5C 1211.22,815.447 1217.55,809.114 1225.5,804.5C 1233.38,800.764 1241.72,798.431 1250.5,797.5 Z"/></g>
<g><path style="opacity:1" fill="#fefefe" d="M 1474.5,797.5 C 1477.17,797.833 1479.83,798.167 1482.5,798.5C 1490.85,800.592 1498.69,803.925 1506,808.5C 1507.3,808.361 1508.13,807.695 1508.5,806.5C 1515.48,802.336 1522.81,799.336 1530.5,797.5C 1544.17,797.5 1557.83,797.5 1571.5,797.5C 1578.02,797.925 1584.35,799.258 1590.5,801.5C 1600.62,805.951 1608.95,812.617 1615.5,821.5C 1617.29,826.045 1618.79,830.712 1620,835.5C 1620.67,883.5 1620.67,931.5 1620,979.5C 1618.99,982.202 1617.49,984.535 1615.5,986.5C 1612.3,987.787 1608.97,988.453 1605.5,988.5C 1600.63,988.882 1595.97,988.215 1591.5,986.5C 1588.17,984.53 1586.34,981.53 1586,977.5C 1585.67,932.5 1585.33,887.5 1585,842.5C 1583.23,833.898 1578.07,828.898 1569.5,827.5C 1559.34,826.341 1549.01,826.175 1538.5,827C 1534.89,827.472 1531.89,828.972 1529.5,831.5C 1526.64,834.557 1524.8,838.224 1524,842.5C 1523.67,887.5 1523.33,932.5 1523,977.5C 1521.79,981.869 1519.29,985.203 1515.5,987.5C 1513.24,988.219 1510.9,988.552 1508.5,988.5C 1500.03,990.343 1493.53,987.677 1489,980.5C 1488.67,935.167 1488.33,889.833 1488,844.5C 1486.86,839.547 1484.69,835.214 1481.5,831.5C 1478.91,829.408 1475.91,828.075 1472.5,827.5C 1462.01,826.341 1451.34,826.175 1440.5,827C 1434.43,828.245 1430.43,831.745 1428.5,837.5C 1427.07,839.148 1426.24,841.148 1426,843.5C 1425.82,889.541 1425.32,935.541 1424.5,981.5C 1420.7,987.059 1415.37,989.393 1408.5,988.5C 1401.43,989.542 1395.93,987.209 1392,981.5C 1390.85,956.881 1390.35,932.214 1390.5,907.5C 1390.36,882.133 1390.86,856.799 1392,831.5C 1394.43,824.126 1398.27,817.626 1403.5,812C 1410.27,807.29 1417.27,803.124 1424.5,799.5C 1426.41,799.784 1428.08,799.451 1429.5,798.5C 1444.45,797.532 1459.45,797.199 1474.5,797.5 Z"/></g>
<g><path style="opacity:1" fill="#f6eea6" d="M 976.5,823.5 C 977.833,869.167 977.833,914.833 976.5,960.5C 974.641,959.406 972.641,958.573 970.5,958C 963.833,957.667 957.167,957.333 950.5,957C 946.693,955.86 944.193,953.36 943,949.5C 941.528,908.54 941.028,867.54 941.5,826.5C 951.839,826.666 962.172,826.5 972.5,826C 973.984,825.338 975.317,824.504 976.5,823.5 Z"/></g>
<g><path style="opacity:1" fill="#d1be7e" d="M 630.5,827.5 C 635.5,827.5 640.5,827.5 645.5,827.5C 645.5,908.833 645.5,990.167 645.5,1071.5C 642.941,1071.2 640.607,1071.53 638.5,1072.5C 621.14,1075 607.474,1083.34 597.5,1097.5C 597.5,1061.17 597.5,1024.83 597.5,988.5C 602.705,988.866 607.705,988.033 612.5,986C 615.734,984.056 617.9,981.222 619,977.5C 619.333,930.833 619.667,884.167 620,837.5C 620.732,831.268 624.232,827.935 630.5,827.5 Z"/></g>
<g><path style="opacity:1" fill="#d5c382" d="M 645.5,827.5 C 652.529,827.377 659.529,827.71 666.5,828.5C 666.5,909.5 666.5,990.5 666.5,1071.5C 659.5,1071.5 652.5,1071.5 645.5,1071.5C 645.5,990.167 645.5,908.833 645.5,827.5 Z"/></g>
<g><path style="opacity:1" fill="#e5d894" d="M 761.5,827.5 C 775.994,826.339 790.661,826.172 805.5,827C 816.571,827.07 823.071,832.57 825,843.5C 825.5,854.495 825.667,865.495 825.5,876.5C 809.833,876.5 794.167,876.5 778.5,876.5C 778.5,860.167 778.5,843.833 778.5,827.5C 772.833,827.5 767.167,827.5 761.5,827.5 Z"/></g>
<g><path style="opacity:1" fill="#f4eba3" d="M 1041.5,827.5 C 1044.85,827.335 1048.18,827.502 1051.5,828C 1050.5,909.096 1050.17,990.263 1050.5,1071.5C 1044.5,1071.5 1038.5,1071.5 1032.5,1071.5C 1032.5,1043.5 1032.5,1015.5 1032.5,987.5C 1037.35,985.471 1040.19,981.804 1041,976.5C 1041.5,926.834 1041.67,877.168 1041.5,827.5 Z"/></g>
<g><path style="opacity:1" fill="#f2e9a2" d="M 1041.5,827.5 C 1063.17,826.167 1084.83,826.167 1106.5,827.5C 1106.17,827.5 1105.83,827.5 1105.5,827.5C 1094.5,827.5 1083.5,827.5 1072.5,827.5C 1072.5,908.833 1072.5,990.167 1072.5,1071.5C 1065.17,1071.5 1057.83,1071.5 1050.5,1071.5C 1050.17,990.263 1050.5,909.096 1051.5,828C 1048.18,827.502 1044.85,827.335 1041.5,827.5 Z"/></g>
<g><path style="opacity:1" fill="#efe59e" d="M 1105.5,827.5 C 1105.5,911.833 1105.5,996.167 1105.5,1080.5C 1100.52,1078.35 1095.52,1076.18 1090.5,1074C 1084.59,1072.45 1078.59,1071.62 1072.5,1071.5C 1072.5,990.167 1072.5,908.833 1072.5,827.5C 1083.5,827.5 1094.5,827.5 1105.5,827.5 Z"/></g>
<g><path style="opacity:1" fill="#ece19b" d="M 1105.5,827.5 C 1105.83,827.5 1106.17,827.5 1106.5,827.5C 1115.46,829.129 1120.8,834.462 1122.5,843.5C 1121.5,927.665 1121.17,1012 1121.5,1096.5C 1117.17,1090.17 1111.83,1084.83 1105.5,1080.5C 1105.5,996.167 1105.5,911.833 1105.5,827.5 Z"/></g>
<g><path style="opacity:1" fill="#dccc8a" d="M 1286.5,826.5 C 1284.05,827.473 1281.39,827.806 1278.5,827.5C 1278.5,843.833 1278.5,860.167 1278.5,876.5C 1268.5,876.5 1258.5,876.5 1248.5,876.5C 1248.5,860.5 1248.5,844.5 1248.5,828.5C 1250.63,827.686 1252.96,827.186 1255.5,827C 1265.83,826.5 1276.16,826.334 1286.5,826.5 Z"/></g>
<g><path style="opacity:1" fill="#d8c786" d="M 1286.5,826.5 C 1291.18,826.334 1295.85,826.501 1300.5,827C 1307.57,829.072 1312.41,833.572 1315,840.5C 1315.5,852.495 1315.67,864.495 1315.5,876.5C 1303.17,876.5 1290.83,876.5 1278.5,876.5C 1278.5,860.167 1278.5,843.833 1278.5,827.5C 1281.39,827.806 1284.05,827.473 1286.5,826.5 Z"/></g>
<g><path style="opacity:1" fill="#c8b375" d="M 1472.5,827.5 C 1472.17,827.5 1471.83,827.5 1471.5,827.5C 1465.17,827.5 1458.83,827.5 1452.5,827.5C 1452.17,1166.57 1452.5,1505.57 1453.5,1844.5C 1445.78,1849.02 1437.78,1853.02 1429.5,1856.5C 1428.5,1517 1428.17,1177.33 1428.5,837.5C 1430.43,831.745 1434.43,828.245 1440.5,827C 1451.34,826.175 1462.01,826.341 1472.5,827.5 Z"/></g>
<g><path style="opacity:1" fill="#c6b072" d="M 1471.5,827.5 C 1471.5,1163.17 1471.5,1498.83 1471.5,1834.5C 1465.78,1838.2 1459.78,1841.53 1453.5,1844.5C 1452.5,1505.57 1452.17,1166.57 1452.5,827.5C 1458.83,827.5 1465.17,827.5 1471.5,827.5 Z"/></g>
<g><path style="opacity:1" fill="#c4ae71" d="M 1471.5,827.5 C 1471.83,827.5 1472.17,827.5 1472.5,827.5C 1475.91,828.075 1478.91,829.408 1481.5,831.5C 1480.17,1163.83 1480.17,1496.17 1481.5,1828.5C 1478.53,1830.99 1475.2,1832.99 1471.5,1834.5C 1471.5,1498.83 1471.5,1163.17 1471.5,827.5 Z"/></g>
<g><path style="opacity:1" fill="#bda468" d="M 1569.5,827.5 C 1566.83,827.5 1564.17,827.5 1561.5,827.5C 1559.83,827.5 1558.17,827.5 1556.5,827.5C 1556.17,1145 1556.5,1462.33 1557.5,1779.5C 1548.72,1786.61 1539.39,1792.94 1529.5,1798.5C 1529.5,1476.17 1529.5,1153.83 1529.5,831.5C 1531.89,828.972 1534.89,827.472 1538.5,827C 1549.01,826.175 1559.34,826.341 1569.5,827.5 Z"/></g>
<g><path style="opacity:1" fill="#bba166" d="M 1561.5,827.5 C 1561.17,1143.67 1561.5,1459.67 1562.5,1775.5C 1561.42,1777.54 1559.75,1778.88 1557.5,1779.5C 1556.5,1462.33 1556.17,1145 1556.5,827.5C 1558.17,827.5 1559.83,827.5 1561.5,827.5 Z"/></g>
<g><path style="opacity:1" fill="#baa065" d="M 1561.5,827.5 C 1564.17,827.5 1566.83,827.5 1569.5,827.5C 1578.07,828.898 1583.23,833.898 1585,842.5C 1585.33,887.5 1585.67,932.5 1586,977.5C 1586.34,981.53 1588.17,984.53 1591.5,986.5C 1590.5,1242.33 1590.17,1498.33 1590.5,1754.5C 1581.74,1762.26 1572.4,1769.26 1562.5,1775.5C 1561.5,1459.67 1561.17,1143.67 1561.5,827.5 Z"/></g>
<g><path style="opacity:1" fill="#e0d18e" d="M 761.5,827.5 C 767.167,827.5 772.833,827.5 778.5,827.5C 778.5,843.833 778.5,860.167 778.5,876.5C 764.343,875.803 750.343,876.803 736.5,879.5C 736.5,874.5 736.5,869.5 736.5,864.5C 745.777,858.876 749.277,850.542 747,839.5C 749.315,832.344 754.148,828.344 761.5,827.5 Z"/></g>
<g><path style="opacity:1" fill="#dfd18f" d="M 1248.5,828.5 C 1248.5,844.5 1248.5,860.5 1248.5,876.5C 1232.41,876.527 1218.41,881.86 1206.5,892.5C 1205.51,882.347 1205.17,872.014 1205.5,861.5C 1207.26,862.072 1208.92,862.906 1210.5,864C 1230.38,868.447 1239.21,860.614 1237,840.5C 1238.39,833.971 1242.23,829.971 1248.5,828.5 Z"/></g>
<g><path style="opacity:1" fill="#c3ab6f" d="M 1481.5,831.5 C 1484.69,835.214 1486.86,839.547 1488,844.5C 1488.33,889.833 1488.67,935.167 1489,980.5C 1493.53,987.677 1500.03,990.343 1508.5,988.5C 1507.5,1263.1 1507.17,1537.76 1507.5,1812.5C 1499.51,1818.83 1490.84,1824.17 1481.5,1828.5C 1480.17,1496.17 1480.17,1163.83 1481.5,831.5 Z"/></g>
<g><path style="opacity:1" fill="#c0a76b" d="M 1529.5,831.5 C 1529.5,1153.83 1529.5,1476.17 1529.5,1798.5C 1525.38,1802.28 1520.71,1805.28 1515.5,1807.5C 1515.5,1534.17 1515.5,1260.83 1515.5,987.5C 1519.29,985.203 1521.79,981.869 1523,977.5C 1523.33,932.5 1523.67,887.5 1524,842.5C 1524.8,838.224 1526.64,834.557 1529.5,831.5 Z"/></g>
<g><path style="opacity:1" fill="#cab577" d="M 1428.5,837.5 C 1428.17,1177.33 1428.5,1517 1429.5,1856.5C 1428.49,1857.67 1427.15,1858.34 1425.5,1858.5C 1424.5,1566.33 1424.17,1274 1424.5,981.5C 1425.32,935.541 1425.82,889.541 1426,843.5C 1426.24,841.148 1427.07,839.148 1428.5,837.5 Z"/></g>
<g><path style="opacity:1" fill="#c5ae71" d="M 532.5,872.5 C 533.499,917.997 533.832,963.664 533.5,1009.5C 530.287,1009.19 527.287,1009.52 524.5,1010.5C 518.283,1010.88 513.783,1013.88 511,1019.5C 510.667,1084.5 510.333,1149.5 510,1214.5C 509.284,1216.88 508.117,1218.88 506.5,1220.5C 506.833,1110.67 506.499,1001 505.5,891.5C 516.358,887.896 525.358,881.563 532.5,872.5 Z"/></g>
<g><path style="opacity:1" fill="#c3ab6f" d="M 505.5,891.5 C 506.499,1001 506.833,1110.67 506.5,1220.5C 506.16,1223.67 504.493,1225.84 501.5,1227C 494.356,1229.24 487.023,1230.07 479.5,1229.5C 479.5,1117.83 479.5,1006.17 479.5,894.5C 472.167,894.5 464.833,894.5 457.5,894.5C 452.968,894.818 448.634,894.485 444.5,893.5C 462.836,893.667 481.17,893.5 499.5,893C 501.436,892.187 503.436,891.687 505.5,891.5 Z"/></g>
<g><path style="opacity:1" fill="#c0a86c" d="M 457.5,894.5 C 464.833,894.5 472.167,894.5 479.5,894.5C 479.5,1006.17 479.5,1117.83 479.5,1229.5C 472.167,1229.5 464.833,1229.5 457.5,1229.5C 457.5,1117.83 457.5,1006.17 457.5,894.5 Z"/></g>
<g><path style="opacity:1" fill="#e1d28f" d="M 778.5,906.5 C 778.5,923.167 778.5,939.833 778.5,956.5C 769.827,956.666 761.16,956.5 752.5,956C 747.726,954.702 744.226,951.868 742,947.5C 740.463,939.23 740.13,930.897 741,922.5C 742.556,915.518 746.39,910.351 752.5,907C 761.16,906.5 769.827,906.334 778.5,906.5 Z"/></g>
<g><path style="opacity:1" fill="#e4d792" d="M 778.5,906.5 C 792.5,906.5 806.5,906.5 820.5,906.5C 820.5,962.167 820.5,1017.83 820.5,1073.5C 807.385,1077.8 797.218,1085.8 790,1097.5C 788.052,1102.34 786.719,1107.34 786,1112.5C 785.333,1147.83 785.333,1183.17 786,1218.5C 788.938,1239.28 800.438,1252.95 820.5,1259.5C 820.5,1486.83 820.5,1714.17 820.5,1941.5C 805.699,1939.13 791.032,1936.13 776.5,1932.5C 778.498,1617.37 779.165,1302.04 778.5,986.5C 786.917,986.906 795.251,986.406 803.5,985C 811.489,975.946 811.489,966.946 803.5,958C 795.251,956.594 786.917,956.094 778.5,956.5C 778.5,939.833 778.5,923.167 778.5,906.5 Z"/></g>
<g><path style="opacity:1" fill="#dccd8a" d="M 1278.5,906.5 C 1278.5,923.167 1278.5,939.833 1278.5,956.5C 1266.5,956.667 1254.5,956.5 1242.5,956C 1232.92,952.018 1229.26,944.852 1231.5,934.5C 1229.98,924.047 1232.98,915.214 1240.5,908C 1253.11,906.602 1265.78,906.102 1278.5,906.5 Z"/></g>
<g><path style="opacity:1" fill="#d8c785" d="M 1278.5,906.5 C 1290.83,906.5 1303.17,906.5 1315.5,906.5C 1315.33,930.502 1315.5,954.502 1316,978.5C 1317.18,980.86 1318.35,983.193 1319.5,985.5C 1318.5,1024.66 1318.17,1064 1318.5,1103.5C 1312.98,1090.15 1303.31,1080.98 1289.5,1076C 1285.76,1074.98 1282.09,1073.82 1278.5,1072.5C 1278.5,1043.83 1278.5,1015.17 1278.5,986.5C 1283.63,986.888 1288.63,986.388 1293.5,985C 1294.67,983.833 1295.83,982.667 1297,981.5C 1303.88,963.209 1297.71,954.876 1278.5,956.5C 1278.5,939.833 1278.5,923.167 1278.5,906.5 Z"/></g>
<g><path style="opacity:1" fill="#dccc8c" d="M 705.5,947.5 C 706.031,955.892 708.864,963.559 714,970.5C 720.66,976.248 728.16,980.581 736.5,983.5C 737.138,992.895 736.471,1001.9 734.5,1010.5C 728.812,1009.12 723.145,1009.29 717.5,1011C 713.942,1012.89 711.442,1015.73 710,1019.5C 709.5,1037.16 709.333,1054.83 709.5,1072.5C 685.833,1072.5 662.167,1072.5 638.5,1072.5C 640.607,1071.53 642.941,1071.2 645.5,1071.5C 652.5,1071.5 659.5,1071.5 666.5,1071.5C 673.5,1071.5 680.5,1071.5 687.5,1071.5C 693.5,1071.5 699.5,1071.5 705.5,1071.5C 705.5,1030.17 705.5,988.833 705.5,947.5 Z"/></g>
<g><path style="opacity:1" fill="#f2e9a2" d="M 911.5,965.5 C 916.286,973.748 923.286,979.415 932.5,982.5C 932.5,1020.83 932.5,1059.17 932.5,1097.5C 927.086,1088.09 919.419,1081.09 909.5,1076.5C 910.828,1071.54 911.495,1066.21 911.5,1060.5C 910.823,1028.66 910.823,996.993 911.5,965.5 Z"/></g>
<g><path style="opacity:1" fill="#f4eba4" d="M 932.5,982.5 C 938.427,984.812 944.427,986.479 950.5,987.5C 950.5,1310.5 950.5,1633.5 950.5,1956.5C 952.415,1956.22 954.081,1956.55 955.5,1957.5C 948.826,1957.29 942.159,1956.95 935.5,1956.5C 934.791,1955.6 933.791,1955.26 932.5,1955.5C 932.5,1715.17 932.5,1474.83 932.5,1234.5C 936.101,1224.49 937.268,1214.16 936,1203.5C 934.5,1199.33 931.667,1196.5 927.5,1195C 922.177,1194.5 916.844,1194.33 911.5,1194.5C 910.296,1189.82 910.296,1185.16 911.5,1180.5C 918.196,1181.15 924.529,1179.98 930.5,1177C 933.164,1174.33 934.998,1171.16 936,1167.5C 936.667,1148.17 936.667,1128.83 936,1109.5C 935.138,1105.38 933.971,1101.38 932.5,1097.5C 932.5,1059.17 932.5,1020.83 932.5,982.5 Z"/></g>
<g><path style="opacity:1" fill="#dfd08d" d="M 736.5,983.5 C 744.341,985.62 752.341,986.62 760.5,986.5C 760.5,1300.5 760.5,1614.5 760.5,1928.5C 753.288,1926.87 746.288,1924.87 739.5,1922.5C 738.791,1921.6 737.791,1921.26 736.5,1921.5C 736.5,1701.5 736.5,1481.5 736.5,1261.5C 740.287,1259.2 742.787,1255.87 744,1251.5C 744.667,1174.83 744.667,1098.17 744,1021.5C 743.096,1015.77 739.929,1012.1 734.5,1010.5C 736.471,1001.9 737.138,992.895 736.5,983.5 Z"/></g>
<g><path style="opacity:1" fill="#dfd18d" d="M 1206.5,972.5 C 1218.89,981.74 1232.89,986.406 1248.5,986.5C 1248.5,1014.83 1248.5,1043.17 1248.5,1071.5C 1234.17,1071.5 1219.83,1071.5 1205.5,1071.5C 1205.17,1038.33 1205.5,1005.33 1206.5,972.5 Z"/></g>
<g><path style="opacity:1" fill="#d5c382" d="M 1319.5,985.5 C 1323.83,987.747 1328.5,988.747 1333.5,988.5C 1332.83,1291.84 1333.5,1594.84 1335.5,1897.5C 1330.46,1900.07 1325.13,1902.07 1319.5,1903.5C 1318.5,1688 1318.17,1472.33 1318.5,1256.5C 1318.99,1255.53 1319.49,1254.53 1320,1253.5C 1320.67,1206.17 1320.67,1158.83 1320,1111.5C 1319.43,1108.83 1318.93,1106.17 1318.5,1103.5C 1318.17,1064 1318.5,1024.66 1319.5,985.5 Z"/></g>
<g><path style="opacity:1" fill="#e1d38f" d="M 760.5,986.5 C 766.5,986.5 772.5,986.5 778.5,986.5C 779.165,1302.04 778.498,1617.37 776.5,1932.5C 771.071,1931.48 765.738,1930.14 760.5,1928.5C 760.5,1614.5 760.5,1300.5 760.5,986.5 Z"/></g>
<g><path style="opacity:1" fill="#dccc8a" d="M 1248.5,986.5 C 1258.5,986.5 1268.5,986.5 1278.5,986.5C 1278.5,1015.17 1278.5,1043.83 1278.5,1072.5C 1268.54,1071.58 1258.54,1071.24 1248.5,1071.5C 1248.5,1043.17 1248.5,1014.83 1248.5,986.5 Z"/></g>
<g><path style="opacity:1" fill="#b89d63" d="M 1591.5,986.5 C 1595.97,988.215 1600.63,988.882 1605.5,988.5C 1603.39,989.468 1601.06,989.802 1598.5,989.5C 1598.17,1242.33 1598.5,1495 1599.5,1747.5C 1596.79,1750.21 1593.79,1752.54 1590.5,1754.5C 1590.17,1498.33 1590.5,1242.33 1591.5,986.5 Z"/></g>
<g><path style="opacity:1" fill="#b69b61" d="M 1615.5,986.5 C 1615.17,1235.67 1615.5,1484.67 1616.5,1733.5C 1611.43,1738.87 1605.76,1743.54 1599.5,1747.5C 1598.5,1495 1598.17,1242.33 1598.5,989.5C 1601.06,989.802 1603.39,989.468 1605.5,988.5C 1608.97,988.453 1612.3,987.787 1615.5,986.5 Z"/></g>
<g><path style="opacity:1" fill="#c1a96d" d="M 1515.5,987.5 C 1515.5,1260.83 1515.5,1534.17 1515.5,1807.5C 1513.37,1809.95 1510.7,1811.62 1507.5,1812.5C 1507.17,1537.76 1507.5,1263.1 1508.5,988.5C 1510.9,988.552 1513.24,988.219 1515.5,987.5 Z"/></g>
<g><path style="opacity:1" fill="#d4c281" d="M 1339.5,987.5 C 1339.17,1290.57 1339.5,1593.57 1340.5,1896.5C 1338.88,1897.04 1337.22,1897.37 1335.5,1897.5C 1333.5,1594.84 1332.83,1291.84 1333.5,988.5C 1335.56,988.483 1337.56,988.15 1339.5,987.5 Z"/></g>
<g><path style="opacity:1" fill="#fefefe" d="M 1383.5,1007.5 C 1385.22,1007.63 1386.88,1007.96 1388.5,1008.5C 1398.47,1012.64 1403.47,1020.14 1403.5,1031C 1403.59,1042 1398.59,1049.5 1388.5,1053.5C 1382.13,1054.95 1375.8,1054.78 1369.5,1053C 1358.64,1046.45 1354.47,1036.95 1357,1024.5C 1361.33,1011.91 1370.16,1006.25 1383.5,1007.5 Z"/></g>
<g><path style="opacity:1" fill="#fefefe" d="M 393.5,1010.5 C 397.514,1010.33 401.514,1010.5 405.5,1011C 410.245,1012.11 413.412,1014.95 415,1019.5C 415.333,1084.17 415.667,1148.83 416,1213.5C 417.613,1221.27 422.113,1226.27 429.5,1228.5C 438.652,1229.49 447.985,1229.83 457.5,1229.5C 464.833,1229.5 472.167,1229.5 479.5,1229.5C 487.023,1230.07 494.356,1229.24 501.5,1227C 504.493,1225.84 506.16,1223.67 506.5,1220.5C 508.117,1218.88 509.284,1216.88 510,1214.5C 510.333,1149.5 510.667,1084.5 511,1019.5C 513.783,1013.88 518.283,1010.88 524.5,1010.5C 533.852,1008.43 541.352,1011.09 547,1018.5C 547.667,1085.5 547.667,1152.5 547,1219.5C 545.881,1230.46 541.381,1239.79 533.5,1247.5C 527.115,1251.69 520.448,1255.36 513.5,1258.5C 510.933,1258.72 508.599,1259.39 506.5,1260.5C 497.874,1261.41 489.208,1261.74 480.5,1261.5C 475.167,1261.5 469.833,1261.5 464.5,1261.5C 455.167,1261.5 445.833,1261.5 436.5,1261.5C 421.664,1262.4 408.33,1258.4 396.5,1249.5C 385.715,1241.6 379.881,1230.93 379,1217.5C 378.333,1151.5 378.333,1085.5 379,1019.5C 381.898,1013.44 386.732,1010.44 393.5,1010.5 Z"/></g>
<g><path style="opacity:1" fill="#fefefe" d="M 734.5,1010.5 C 739.929,1012.1 743.096,1015.77 744,1021.5C 744.667,1098.17 744.667,1174.83 744,1251.5C 742.787,1255.87 740.287,1259.2 736.5,1261.5C 730.115,1262.7 723.782,1262.7 717.5,1261.5C 713.146,1260.64 710.646,1257.98 710,1253.5C 709.5,1202.83 709.333,1152.17 709.5,1101.5C 708.167,1101.5 706.833,1101.5 705.5,1101.5C 699.5,1101.5 693.5,1101.5 687.5,1101.5C 680.5,1101.5 673.5,1101.5 666.5,1101.5C 657.983,1101.17 649.65,1101.51 641.5,1102.5C 634.103,1104.74 629.603,1109.74 628,1117.5C 627.333,1151.5 627.333,1185.5 628,1219.5C 629.838,1225.84 634.005,1229.51 640.5,1230.5C 648.984,1231.49 657.651,1231.83 666.5,1231.5C 672.5,1231.5 678.5,1231.5 684.5,1231.5C 687.733,1232.89 690.233,1235.23 692,1238.5C 692.667,1243.5 692.667,1248.5 692,1253.5C 691.033,1256.62 689.2,1258.95 686.5,1260.5C 670.5,1260.5 654.5,1260.5 638.5,1260.5C 626.536,1260.4 615.869,1256.73 606.5,1249.5C 602.759,1246.76 599.759,1243.43 597.5,1239.5C 596.024,1234.93 594.858,1230.26 594,1225.5C 593.333,1186.5 593.333,1147.5 594,1108.5C 595.105,1104.8 596.272,1101.13 597.5,1097.5C 607.474,1083.34 621.14,1075 638.5,1072.5C 662.167,1072.5 685.833,1072.5 709.5,1072.5C 709.333,1054.83 709.5,1037.16 710,1019.5C 711.442,1015.73 713.942,1012.89 717.5,1011C 723.145,1009.29 728.812,1009.12 734.5,1010.5 Z"/></g>
<g><path style="opacity:1" fill="#fefefd" d="M 1205.5,1071.5 C 1219.83,1071.5 1234.17,1071.5 1248.5,1071.5C 1258.54,1071.24 1268.54,1071.58 1278.5,1072.5C 1282.09,1073.82 1285.76,1074.98 1289.5,1076C 1303.31,1080.98 1312.98,1090.15 1318.5,1103.5C 1318.93,1106.17 1319.43,1108.83 1320,1111.5C 1320.67,1158.83 1320.67,1206.17 1320,1253.5C 1319.49,1254.53 1318.99,1255.53 1318.5,1256.5C 1316.64,1258.78 1314.31,1260.62 1311.5,1262C 1306.85,1262.5 1302.18,1262.67 1297.5,1262.5C 1292.73,1261.58 1289.23,1258.91 1287,1254.5C 1286.67,1209.83 1286.33,1165.17 1286,1120.5C 1284.78,1115.05 1282.28,1110.38 1278.5,1106.5C 1276.16,1103.84 1273.16,1102.5 1269.5,1102.5C 1262.69,1101.51 1255.69,1101.18 1248.5,1101.5C 1240.5,1101.5 1232.5,1101.5 1224.5,1101.5C 1218.17,1101.5 1211.83,1101.5 1205.5,1101.5C 1204.67,1151 1204.17,1200.66 1204,1250.5C 1203.04,1256.13 1199.88,1259.96 1194.5,1262C 1189.17,1262.67 1183.83,1262.67 1178.5,1262C 1173.45,1260.28 1170.62,1256.78 1170,1251.5C 1169.83,1212.83 1169.67,1174.17 1169.5,1135.5C 1169.34,1095.78 1169.84,1056.11 1171,1016.5C 1175.05,1011.35 1180.38,1009.01 1187,1009.5C 1196.23,1009.42 1201.9,1013.75 1204,1022.5C 1204.17,1039.01 1204.67,1055.34 1205.5,1071.5 Z"/></g>
<g><path style="opacity:1" fill="#fefefe" d="M 1388.5,1071.5 C 1392.48,1073.31 1395.31,1076.31 1397,1080.5C 1397.67,1138.17 1397.67,1195.83 1397,1253.5C 1395.75,1255 1394.75,1256.67 1394,1258.5C 1391.83,1259.49 1390,1260.82 1388.5,1262.5C 1387.17,1262.5 1385.83,1262.5 1384.5,1262.5C 1379.4,1262.83 1374.4,1262.33 1369.5,1261C 1366.27,1259.06 1364.1,1256.22 1363,1252.5C 1362.33,1195.17 1362.33,1137.83 1363,1080.5C 1364.44,1076.73 1366.94,1073.89 1370.5,1072C 1376.46,1070.17 1382.46,1070 1388.5,1071.5 Z"/></g>
<g><path style="opacity:1" fill="#fefefe" d="M 862.5,1071.5 C 867.833,1071.5 873.167,1071.5 878.5,1071.5C 889.215,1070.98 899.548,1072.64 909.5,1076.5C 919.419,1081.09 927.086,1088.09 932.5,1097.5C 933.971,1101.38 935.138,1105.38 936,1109.5C 936.667,1128.83 936.667,1148.17 936,1167.5C 934.998,1171.16 933.164,1174.33 930.5,1177C 924.529,1179.98 918.196,1181.15 911.5,1180.5C 906.833,1180.5 902.167,1180.5 897.5,1180.5C 879.073,1180.97 860.74,1180.47 842.5,1179C 840.106,1177.05 838.606,1174.55 838,1171.5C 837.333,1167.17 837.333,1162.83 838,1158.5C 839.581,1153.29 843.081,1150.96 848.5,1151.5C 866.5,1151.5 884.5,1151.5 902.5,1151.5C 902.828,1139.99 902.495,1128.65 901.5,1117.5C 900.611,1110.55 896.945,1105.72 890.5,1103C 881.248,1101.58 871.915,1101.08 862.5,1101.5C 852.828,1101.33 843.161,1101.5 833.5,1102C 827.333,1104.17 823.167,1108.33 821,1114.5C 820.333,1148.5 820.333,1182.5 821,1216.5C 822.675,1224.05 827.175,1228.88 834.5,1231C 843.827,1231.5 853.161,1231.67 862.5,1231.5C 870.84,1231.67 879.173,1231.5 887.5,1231C 893.113,1229.72 897.28,1226.55 900,1221.5C 901.716,1214.55 903.049,1207.55 904,1200.5C 906.114,1197.88 908.614,1195.88 911.5,1194.5C 916.844,1194.33 922.177,1194.5 927.5,1195C 931.667,1196.5 934.5,1199.33 936,1203.5C 937.268,1214.16 936.101,1224.49 932.5,1234.5C 927.06,1243.94 919.393,1250.94 909.5,1255.5C 905.064,1257.61 900.398,1259.11 895.5,1260C 873.169,1260.5 850.836,1260.67 828.5,1260.5C 825.794,1260.42 823.127,1260.09 820.5,1259.5C 800.438,1252.95 788.938,1239.28 786,1218.5C 785.333,1183.17 785.333,1147.83 786,1112.5C 786.719,1107.34 788.052,1102.34 790,1097.5C 797.218,1085.8 807.385,1077.8 820.5,1073.5C 834.402,1071.64 848.402,1070.97 862.5,1071.5 Z"/></g>
<g><path style="opacity:1" fill="#fefefd" d="M 1032.5,1071.5 C 1038.5,1071.5 1044.5,1071.5 1050.5,1071.5C 1057.83,1071.5 1065.17,1071.5 1072.5,1071.5C 1078.59,1071.62 1084.59,1072.45 1090.5,1074C 1095.52,1076.18 1100.52,1078.35 1105.5,1080.5C 1111.83,1084.83 1117.17,1090.17 1121.5,1096.5C 1126.24,1107.33 1127.74,1118.66 1126,1130.5C 1124.98,1132.69 1123.48,1134.35 1121.5,1135.5C 1113.4,1138.23 1105.4,1138.07 1097.5,1135C 1095.62,1133.46 1094.12,1131.62 1093,1129.5C 1094.32,1119.8 1091.49,1111.63 1084.5,1105C 1081.79,1103.09 1078.79,1102.26 1075.5,1102.5C 1059.67,1101.34 1043.67,1101.17 1027.5,1102C 1018.79,1103.05 1013.62,1107.88 1012,1116.5C 1011.33,1123.17 1011.33,1129.83 1012,1136.5C 1014.34,1145.01 1019.84,1149.68 1028.5,1150.5C 1049.37,1151.06 1070.37,1151.89 1091.5,1153C 1103.48,1157.14 1113.48,1163.97 1121.5,1173.5C 1127.21,1183.2 1129.55,1193.7 1128.5,1205C 1129.75,1217.82 1127.08,1229.66 1120.5,1240.5C 1115.96,1246.1 1110.62,1250.77 1104.5,1254.5C 1093.71,1259.36 1082.38,1261.7 1070.5,1261.5C 1063.83,1261.5 1057.17,1261.5 1050.5,1261.5C 1044.5,1261.5 1038.5,1261.5 1032.5,1261.5C 1022.91,1261.85 1013.58,1260.52 1004.5,1257.5C 1001.67,1255.58 998.669,1253.92 995.5,1252.5C 992.81,1249.82 989.81,1247.48 986.5,1245.5C 982.988,1241.14 979.988,1236.47 977.5,1231.5C 975.798,1224.79 974.798,1217.96 974.5,1211C 974.078,1199.26 979.744,1193.76 991.5,1194.5C 1006.08,1193.31 1012.25,1199.97 1010,1214.5C 1012.47,1226.8 1019.97,1232.47 1032.5,1231.5C 1047.17,1231.67 1061.84,1231.5 1076.5,1231C 1085.72,1230.45 1091.22,1225.61 1093,1216.5C 1093.67,1209.17 1093.67,1201.83 1093,1194.5C 1090.83,1188.33 1086.67,1184.17 1080.5,1182C 1062.55,1180.57 1044.55,1180.07 1026.5,1180.5C 1007.25,1179.96 992.087,1171.96 981,1156.5C 979.164,1151.99 977.83,1147.32 977,1142.5C 976.231,1130.8 976.397,1119.13 977.5,1107.5C 979.568,1101.08 982.568,1095.08 986.5,1089.5C 989.319,1086.93 992.319,1084.59 995.5,1082.5C 998.869,1080.49 1002.2,1078.49 1005.5,1076.5C 1014.13,1072.91 1023.13,1071.24 1032.5,1071.5 Z"/></g>
<g><path style="opacity:1" fill="#d5c382" d="M 641.5,1102.5 C 649.65,1101.51 657.983,1101.17 666.5,1101.5C 666.5,1144.83 666.5,1188.17 666.5,1231.5C 657.651,1231.83 648.984,1231.49 640.5,1230.5C 642.167,1230.5 643.833,1230.5 645.5,1230.5C 645.5,1187.83 645.5,1145.17 645.5,1102.5C 644.167,1102.5 642.833,1102.5 641.5,1102.5 Z"/></g>
<g><path style="opacity:1" fill="#d7c584" d="M 666.5,1101.5 C 673.5,1101.5 680.5,1101.5 687.5,1101.5C 687.5,1144.83 687.5,1188.17 687.5,1231.5C 686.5,1231.5 685.5,1231.5 684.5,1231.5C 678.5,1231.5 672.5,1231.5 666.5,1231.5C 666.5,1188.17 666.5,1144.83 666.5,1101.5 Z"/></g>
<g><path style="opacity:1" fill="#d9c886" d="M 687.5,1101.5 C 693.5,1101.5 699.5,1101.5 705.5,1101.5C 706.166,1371.84 705.499,1641.84 703.5,1911.5C 697.216,1910.07 691.216,1908.07 685.5,1905.5C 686.833,1798.34 687.5,1690.84 687.5,1583C 687.5,1475.33 687.167,1367.83 686.5,1260.5C 689.2,1258.95 691.033,1256.62 692,1253.5C 692.667,1248.5 692.667,1243.5 692,1238.5C 690.233,1235.23 687.733,1232.89 684.5,1231.5C 685.5,1231.5 686.5,1231.5 687.5,1231.5C 687.5,1188.17 687.5,1144.83 687.5,1101.5 Z"/></g>
<g><path style="opacity:1" fill="#dbca88" d="M 705.5,1101.5 C 706.833,1101.5 708.167,1101.5 709.5,1101.5C 709.333,1152.17 709.5,1202.83 710,1253.5C 710.646,1257.98 713.146,1260.64 717.5,1261.5C 717.832,1479.9 717.499,1698.24 716.5,1916.5C 712.018,1915.01 707.684,1913.34 703.5,1911.5C 705.499,1641.84 706.166,1371.84 705.5,1101.5 Z"/></g>
<g><path style="opacity:1" fill="#e9dd98" d="M 862.5,1101.5 C 862.5,1117.83 862.5,1134.17 862.5,1150.5C 857.637,1150.18 852.97,1150.51 848.5,1151.5C 843.081,1150.96 839.581,1153.29 838,1158.5C 837.333,1162.83 837.333,1167.17 838,1171.5C 838.606,1174.55 840.106,1177.05 842.5,1179C 860.74,1180.47 879.073,1180.97 897.5,1180.5C 886.012,1181.49 874.345,1181.83 862.5,1181.5C 862.5,1198.17 862.5,1214.83 862.5,1231.5C 853.161,1231.67 843.827,1231.5 834.5,1231C 827.175,1228.88 822.675,1224.05 821,1216.5C 820.333,1182.5 820.333,1148.5 821,1114.5C 823.167,1108.33 827.333,1104.17 833.5,1102C 843.161,1101.5 852.828,1101.33 862.5,1101.5 Z"/></g>
<g><path style="opacity:1" fill="#eee39d" d="M 862.5,1101.5 C 871.915,1101.08 881.248,1101.58 890.5,1103C 896.945,1105.72 900.611,1110.55 901.5,1117.5C 901.5,1128.5 901.5,1139.5 901.5,1150.5C 888.5,1150.5 875.5,1150.5 862.5,1150.5C 862.5,1134.17 862.5,1117.83 862.5,1101.5 Z"/></g>
<g><path style="opacity:1" fill="#f4eba3" d="M 1075.5,1102.5 C 1074.5,1102.5 1073.5,1102.5 1072.5,1102.5C 1072.5,1118.5 1072.5,1134.5 1072.5,1150.5C 1057.83,1150.5 1043.17,1150.5 1028.5,1150.5C 1019.84,1149.68 1014.34,1145.01 1012,1136.5C 1011.33,1129.83 1011.33,1123.17 1012,1116.5C 1013.62,1107.88 1018.79,1103.05 1027.5,1102C 1043.67,1101.17 1059.67,1101.34 1075.5,1102.5 Z"/></g>
<g><path style="opacity:1" fill="#e1d28f" d="M 1205.5,1101.5 C 1211.83,1101.5 1218.17,1101.5 1224.5,1101.5C 1224.5,1378.17 1224.5,1654.83 1224.5,1931.5C 1218.07,1933.66 1211.4,1935.32 1204.5,1936.5C 1205.5,1658.24 1205.83,1379.9 1205.5,1101.5 Z"/></g>
<g><path style="opacity:1" fill="#dfd08d" d="M 1224.5,1101.5 C 1232.5,1101.5 1240.5,1101.5 1248.5,1101.5C 1248.5,1376.17 1248.5,1650.83 1248.5,1925.5C 1240.84,1928.42 1232.84,1930.42 1224.5,1931.5C 1224.5,1654.83 1224.5,1378.17 1224.5,1101.5 Z"/></g>
<g><path style="opacity:1" fill="#dccc8a" d="M 1248.5,1101.5 C 1255.69,1101.18 1262.69,1101.51 1269.5,1102.5C 1268.17,1238.33 1267.5,1374.5 1267.5,1511C 1267.5,1647.57 1267.83,1784.07 1268.5,1920.5C 1261.92,1922.48 1255.25,1924.15 1248.5,1925.5C 1248.5,1650.83 1248.5,1376.17 1248.5,1101.5 Z"/></g>
<g><path style="opacity:1" fill="#d3c081" d="M 641.5,1102.5 C 642.833,1102.5 644.167,1102.5 645.5,1102.5C 645.5,1145.17 645.5,1187.83 645.5,1230.5C 643.833,1230.5 642.167,1230.5 640.5,1230.5C 634.005,1229.51 629.838,1225.84 628,1219.5C 627.333,1185.5 627.333,1151.5 628,1117.5C 629.603,1109.74 634.103,1104.74 641.5,1102.5 Z"/></g>
<g><path style="opacity:1" fill="#efe59f" d="M 1075.5,1102.5 C 1078.79,1102.26 1081.79,1103.09 1084.5,1105C 1091.49,1111.63 1094.32,1119.8 1093,1129.5C 1094.12,1131.62 1095.62,1133.46 1097.5,1135C 1105.4,1138.07 1113.4,1138.23 1121.5,1135.5C 1121.5,1148.17 1121.5,1160.83 1121.5,1173.5C 1113.48,1163.97 1103.48,1157.14 1091.5,1153C 1070.37,1151.89 1049.37,1151.06 1028.5,1150.5C 1043.17,1150.5 1057.83,1150.5 1072.5,1150.5C 1072.5,1134.5 1072.5,1118.5 1072.5,1102.5C 1073.5,1102.5 1074.5,1102.5 1075.5,1102.5 Z"/></g>
<g><path style="opacity:1" fill="#dbcb88" d="M 1269.5,1102.5 C 1273.16,1102.5 1276.16,1103.84 1278.5,1106.5C 1278.5,1376.83 1278.5,1647.17 1278.5,1917.5C 1275.15,1918.5 1271.82,1919.5 1268.5,1920.5C 1267.83,1784.07 1267.5,1647.57 1267.5,1511C 1267.5,1374.5 1268.17,1238.33 1269.5,1102.5 Z"/></g>
<g><path style="opacity:1" fill="#d9c987" d="M 1278.5,1106.5 C 1282.28,1110.38 1284.78,1115.05 1286,1120.5C 1286.33,1165.17 1286.67,1209.83 1287,1254.5C 1289.23,1258.91 1292.73,1261.58 1297.5,1262.5C 1297.17,1478.67 1297.5,1694.67 1298.5,1910.5C 1292.04,1913.21 1285.38,1915.54 1278.5,1917.5C 1278.5,1647.17 1278.5,1376.83 1278.5,1106.5 Z"/></g>
<g><path style="opacity:1" fill="#f3ecc2" d="M 901.5,1117.5 C 902.495,1128.65 902.828,1139.99 902.5,1151.5C 884.5,1151.5 866.5,1151.5 848.5,1151.5C 852.97,1150.51 857.637,1150.18 862.5,1150.5C 875.5,1150.5 888.5,1150.5 901.5,1150.5C 901.5,1139.5 901.5,1128.5 901.5,1117.5 Z"/></g>
<g><path style="opacity:1" fill="#eee39d" d="M 897.5,1180.5 C 902.167,1180.5 906.833,1180.5 911.5,1180.5C 910.296,1185.16 910.296,1189.82 911.5,1194.5C 908.614,1195.88 906.114,1197.88 904,1200.5C 903.049,1207.55 901.716,1214.55 900,1221.5C 897.28,1226.55 893.113,1229.72 887.5,1231C 879.173,1231.5 870.84,1231.67 862.5,1231.5C 862.5,1214.83 862.5,1198.17 862.5,1181.5C 874.345,1181.83 886.012,1181.49 897.5,1180.5 Z"/></g>
<g><path style="opacity:1" fill="#f2e9a2" d="M 1026.5,1180.5 C 1044.55,1180.07 1062.55,1180.57 1080.5,1182C 1086.67,1184.17 1090.83,1188.33 1093,1194.5C 1093.67,1201.83 1093.67,1209.17 1093,1216.5C 1091.22,1225.61 1085.72,1230.45 1076.5,1231C 1061.84,1231.5 1047.17,1231.67 1032.5,1231.5C 1032.5,1214.83 1032.5,1198.17 1032.5,1181.5C 1030.26,1181.79 1028.26,1181.46 1026.5,1180.5 Z"/></g>
<g><path style="opacity:1" fill="#f8f0a9" d="M 977.5,1231.5 C 979.988,1236.47 982.988,1241.14 986.5,1245.5C 986.5,1482.83 986.5,1720.17 986.5,1957.5C 983.5,1957.5 980.5,1957.5 977.5,1957.5C 977.5,1715.5 977.5,1473.5 977.5,1231.5 Z"/></g>
<g><path style="opacity:1" fill="#cfbb7b" d="M 597.5,1239.5 C 599.759,1243.43 602.759,1246.76 606.5,1249.5C 606.832,1457.9 606.499,1666.24 605.5,1874.5C 602.304,1873.07 599.304,1871.4 596.5,1869.5C 597.5,1659.67 597.833,1449.67 597.5,1239.5 Z"/></g>
<g><path style="opacity:1" fill="#ece19b" d="M 1120.5,1240.5 C 1121.5,1477 1121.83,1713.67 1121.5,1950.5C 1115.62,1951.82 1109.62,1952.48 1103.5,1952.5C 1104.83,1836.21 1105.5,1719.71 1105.5,1603C 1105.5,1486.67 1105.17,1370.5 1104.5,1254.5C 1110.62,1250.77 1115.96,1246.1 1120.5,1240.5 Z"/></g>
<g><path style="opacity:1" fill="#f2e9a1" d="M 932.5,1234.5 C 932.5,1474.83 932.5,1715.17 932.5,1955.5C 933.791,1955.26 934.791,1955.6 935.5,1956.5C 927.161,1955.89 918.828,1955.22 910.5,1954.5C 911.287,1720.6 911.62,1488.6 911.5,1258.5C 911.547,1256.96 910.88,1255.96 909.5,1255.5C 919.393,1250.94 927.06,1243.94 932.5,1234.5 Z"/></g>
<g><path style="opacity:1" fill="#f9f2a9" d="M 986.5,1245.5 C 989.81,1247.48 992.81,1249.82 995.5,1252.5C 995.5,1487.5 995.5,1722.5 995.5,1957.5C 992.5,1957.5 989.5,1957.5 986.5,1957.5C 986.5,1720.17 986.5,1482.83 986.5,1245.5 Z"/></g>
<g><path style="opacity:1" fill="#c6b072" d="M 533.5,1247.5 C 533.5,1444.17 533.5,1640.83 533.5,1837.5C 526.539,1834.35 519.873,1830.69 513.5,1826.5C 514.833,1637.07 514.833,1447.74 513.5,1258.5C 520.448,1255.36 527.115,1251.69 533.5,1247.5 Z"/></g>
<g><path style="opacity:1" fill="#baa065" d="M 396.5,1249.5 C 408.33,1258.4 421.664,1262.4 436.5,1261.5C 434.735,1262.46 432.735,1262.79 430.5,1262.5C 430.169,1432.54 430.503,1602.54 431.5,1772.5C 419.566,1764.23 408.233,1755.23 397.5,1745.5C 396.501,1580.24 396.168,1414.9 396.5,1249.5 Z"/></g>
<g><path style="opacity:1" fill="#d1be7e" d="M 606.5,1249.5 C 615.869,1256.73 626.536,1260.4 638.5,1260.5C 640.607,1261.47 642.941,1261.8 645.5,1261.5C 645.5,1471.5 645.5,1681.5 645.5,1891.5C 632.171,1885.84 618.838,1880.17 605.5,1874.5C 606.499,1666.24 606.832,1457.9 606.5,1249.5 Z"/></g>
<g><path style="opacity:1" fill="#f8f0a9" d="M 995.5,1252.5 C 998.669,1253.92 1001.67,1255.58 1004.5,1257.5C 1004.5,1490.83 1004.5,1724.17 1004.5,1957.5C 1001.5,1957.5 998.5,1957.5 995.5,1957.5C 995.5,1722.5 995.5,1487.5 995.5,1252.5 Z"/></g>
<g><path style="opacity:1" fill="#efe59e" d="M 1104.5,1254.5 C 1105.17,1370.5 1105.5,1486.67 1105.5,1603C 1105.5,1719.71 1104.83,1836.21 1103.5,1952.5C 1093.04,1954.21 1082.38,1955.21 1071.5,1955.5C 1072.17,1839.9 1072.5,1724.24 1072.5,1608.5C 1072.5,1492.63 1071.83,1376.96 1070.5,1261.5C 1082.38,1261.7 1093.71,1259.36 1104.5,1254.5 Z"/></g>
<g><path style="opacity:1" fill="#efe59e" d="M 909.5,1255.5 C 910.88,1255.96 911.547,1256.96 911.5,1258.5C 911.62,1488.6 911.287,1720.6 910.5,1954.5C 899.633,1953.66 888.967,1952.33 878.5,1950.5C 878.5,1720.83 878.5,1491.17 878.5,1261.5C 873.167,1261.5 867.833,1261.5 862.5,1261.5C 850.988,1261.83 839.654,1261.49 828.5,1260.5C 850.836,1260.67 873.169,1260.5 895.5,1260C 900.398,1259.11 905.064,1257.61 909.5,1255.5 Z"/></g>
<g><path style="opacity:1" fill="#f7efa6" d="M 976.5,984.5 C 977.499,1025.33 977.832,1066.33 977.5,1107.5C 976.397,1119.13 976.231,1130.8 977,1142.5C 977.83,1147.32 979.164,1151.99 981,1156.5C 992.087,1171.96 1007.25,1179.96 1026.5,1180.5C 1028.26,1181.46 1030.26,1181.79 1032.5,1181.5C 1032.5,1198.17 1032.5,1214.83 1032.5,1231.5C 1019.97,1232.47 1012.47,1226.8 1010,1214.5C 1012.25,1199.97 1006.08,1193.31 991.5,1194.5C 979.744,1193.76 974.078,1199.26 974.5,1211C 974.798,1217.96 975.798,1224.79 977.5,1231.5C 977.5,1473.5 977.5,1715.5 977.5,1957.5C 980.5,1957.5 983.5,1957.5 986.5,1957.5C 989.5,1957.5 992.5,1957.5 995.5,1957.5C 998.5,1957.5 1001.5,1957.5 1004.5,1957.5C 1004.5,1724.17 1004.5,1490.83 1004.5,1257.5C 1013.58,1260.52 1022.91,1261.85 1032.5,1261.5C 1032.5,1493.5 1032.5,1725.5 1032.5,1957.5C 1006.99,1958.73 981.326,1958.73 955.5,1957.5C 954.081,1956.55 952.415,1956.22 950.5,1956.5C 950.5,1633.5 950.5,1310.5 950.5,987.5C 957.508,987.666 964.508,987.5 971.5,987C 973.193,986.153 974.86,985.32 976.5,984.5 Z"/></g>
<g><path style="opacity:1" fill="#d7c684" d="M 1318.5,1256.5 C 1318.17,1472.33 1318.5,1688 1319.5,1903.5C 1312.78,1906.41 1305.78,1908.74 1298.5,1910.5C 1297.5,1694.67 1297.17,1478.67 1297.5,1262.5C 1302.18,1262.67 1306.85,1262.5 1311.5,1262C 1314.31,1260.62 1316.64,1258.78 1318.5,1256.5 Z"/></g>
<g><path style="opacity:1" fill="#c5ae71" d="M 513.5,1258.5 C 514.833,1447.74 514.833,1637.07 513.5,1826.5C 511.205,1825.53 509.205,1824.19 507.5,1822.5C 506.501,1635.24 506.168,1447.9 506.5,1260.5C 508.599,1259.39 510.933,1258.72 513.5,1258.5 Z"/></g>
<g><path style="opacity:1" fill="#c2ab6e" d="M 506.5,1260.5 C 506.168,1447.9 506.501,1635.24 507.5,1822.5C 498.363,1817.43 489.363,1812.1 480.5,1806.5C 479.168,1624.8 479.168,1443.14 480.5,1261.5C 489.208,1261.74 497.874,1261.41 506.5,1260.5 Z"/></g>
<g><path style="opacity:1" fill="#d7c685" d="M 638.5,1260.5 C 654.5,1260.5 670.5,1260.5 686.5,1260.5C 687.167,1367.83 687.5,1475.33 687.5,1583C 687.5,1690.84 686.833,1798.34 685.5,1905.5C 679.075,1903.79 672.742,1901.79 666.5,1899.5C 666.5,1686.83 666.5,1474.17 666.5,1261.5C 659.5,1261.5 652.5,1261.5 645.5,1261.5C 642.941,1261.8 640.607,1261.47 638.5,1260.5 Z"/></g>
<g><path style="opacity:1" fill="#e9dd98" d="M 820.5,1259.5 C 823.127,1260.09 825.794,1260.42 828.5,1260.5C 839.654,1261.49 850.988,1261.83 862.5,1261.5C 862.5,1490.17 862.5,1718.83 862.5,1947.5C 860.901,1947.23 859.568,1947.57 858.5,1948.5C 845.732,1946.59 833.065,1944.26 820.5,1941.5C 820.5,1714.17 820.5,1486.83 820.5,1259.5 Z"/></g>
<g><path style="opacity:1" fill="#bda468" d="M 436.5,1261.5 C 445.833,1261.5 455.167,1261.5 464.5,1261.5C 462.393,1262.47 460.059,1262.8 457.5,1262.5C 457.833,1438.33 457.5,1614 456.5,1789.5C 447.911,1784.25 439.577,1778.58 431.5,1772.5C 430.503,1602.54 430.169,1432.54 430.5,1262.5C 432.735,1262.79 434.735,1262.46 436.5,1261.5 Z"/></g>
<g><path style="opacity:1" fill="#c0a76b" d="M 464.5,1261.5 C 469.833,1261.5 475.167,1261.5 480.5,1261.5C 479.168,1443.14 479.168,1624.8 480.5,1806.5C 472.111,1801.31 464.111,1795.65 456.5,1789.5C 457.5,1614 457.833,1438.33 457.5,1262.5C 460.059,1262.8 462.393,1262.47 464.5,1261.5 Z"/></g>
<g><path style="opacity:1" fill="#d5c382" d="M 645.5,1261.5 C 652.5,1261.5 659.5,1261.5 666.5,1261.5C 666.5,1474.17 666.5,1686.83 666.5,1899.5C 659.615,1896.56 652.615,1893.89 645.5,1891.5C 645.5,1681.5 645.5,1471.5 645.5,1261.5 Z"/></g>
<g><path style="opacity:1" fill="#dccc8a" d="M 717.5,1261.5 C 723.782,1262.7 730.115,1262.7 736.5,1261.5C 736.5,1481.5 736.5,1701.5 736.5,1921.5C 737.791,1921.26 738.791,1921.6 739.5,1922.5C 731.797,1920.66 724.13,1918.66 716.5,1916.5C 717.499,1698.24 717.832,1479.9 717.5,1261.5 Z"/></g>
<g><path style="opacity:1" fill="#ece19b" d="M 862.5,1261.5 C 867.833,1261.5 873.167,1261.5 878.5,1261.5C 878.5,1491.17 878.5,1720.83 878.5,1950.5C 871.803,1950.11 865.136,1949.45 858.5,1948.5C 859.568,1947.57 860.901,1947.23 862.5,1947.5C 862.5,1718.83 862.5,1490.17 862.5,1261.5 Z"/></g>
<g><path style="opacity:1" fill="#f4eba3" d="M 1032.5,1261.5 C 1038.5,1261.5 1044.5,1261.5 1050.5,1261.5C 1050.5,1493.17 1050.5,1724.83 1050.5,1956.5C 1048.59,1956.22 1046.92,1956.55 1045.5,1957.5C 1041.17,1957.5 1036.83,1957.5 1032.5,1957.5C 1032.5,1725.5 1032.5,1493.5 1032.5,1261.5 Z"/></g>
<g><path style="opacity:1" fill="#f2e9a1" d="M 1050.5,1261.5 C 1057.17,1261.5 1063.83,1261.5 1070.5,1261.5C 1071.83,1376.96 1072.5,1492.63 1072.5,1608.5C 1072.5,1724.24 1072.17,1839.9 1071.5,1955.5C 1062.91,1956.5 1054.24,1957.16 1045.5,1957.5C 1046.92,1956.55 1048.59,1956.22 1050.5,1956.5C 1050.5,1724.83 1050.5,1493.17 1050.5,1261.5 Z"/></g>
<g><path style="opacity:1" fill="#cfbb7b" d="M 1384.5,1262.5 C 1385.83,1262.5 1387.17,1262.5 1388.5,1262.5C 1388.5,1467.17 1388.5,1671.83 1388.5,1876.5C 1384.75,1877.97 1381.08,1879.64 1377.5,1881.5C 1379.5,1675.64 1380.16,1469.64 1379.5,1263.5C 1381.41,1263.78 1383.08,1263.45 1384.5,1262.5 Z"/></g>
<g><path style="opacity:0.995" fill="#a07e49" d="M 139.5,1460.5 C 147.151,1473.8 154.818,1487.13 162.5,1500.5C 161.833,1514.5 161.167,1528.5 160.5,1542.5C 152.249,1529.67 144.249,1516.67 136.5,1503.5C 137.331,1489.01 137.831,1474.34 138,1459.5C 138.383,1460.06 138.883,1460.39 139.5,1460.5 Z"/></g>
<g><path style="opacity:0.993" fill="#a07e49" d="M 1850.5,1476.5 C 1851.81,1491.71 1851.81,1507.04 1850.5,1522.5C 1844.01,1534.14 1837.01,1545.47 1829.5,1556.5C 1827.84,1543.7 1826.84,1530.7 1826.5,1517.5C 1834.25,1503.66 1842.25,1489.99 1850.5,1476.5 Z"/></g>
<g><path style="opacity:0.997" fill="#a3814c" d="M 162.5,1500.5 C 171.82,1515.13 181.153,1529.8 190.5,1544.5C 189.34,1557.33 189.173,1570.33 190,1583.5C 191.039,1584.24 191.539,1585.24 191.5,1586.5C 180.421,1572.41 170.088,1557.74 160.5,1542.5C 161.167,1528.5 161.833,1514.5 162.5,1500.5 Z"/></g>
<g><path style="opacity:0.995" fill="#a3814c" d="M 1826.5,1517.5 C 1826.84,1530.7 1827.84,1543.7 1829.5,1556.5C 1820.22,1570.74 1810.22,1584.4 1799.5,1597.5C 1799.83,1584.66 1799.5,1571.99 1798.5,1559.5C 1807.45,1545.22 1816.78,1531.22 1826.5,1517.5 Z"/></g>
<g><path style="opacity:0.993" fill="#a5854f" d="M 190.5,1544.5 C 200.576,1558.97 210.91,1573.31 221.5,1587.5C 221.829,1600.01 221.495,1612.34 220.5,1624.5C 214.531,1617.69 208.698,1610.69 203,1603.5C 198.651,1598.12 194.818,1592.45 191.5,1586.5C 191.539,1585.24 191.039,1584.24 190,1583.5C 189.173,1570.33 189.34,1557.33 190.5,1544.5 Z"/></g>
<g><path style="opacity:0.99" fill="#a5854f" d="M 1798.5,1559.5 C 1799.5,1571.99 1799.83,1584.66 1799.5,1597.5C 1789.26,1612.08 1778.26,1626.08 1766.5,1639.5C 1767.46,1626.55 1767.8,1613.55 1767.5,1600.5C 1777.6,1586.62 1787.94,1572.95 1798.5,1559.5 Z"/></g>
<g><path style="opacity:0.99" fill="#aa8b54" d="M 221.5,1587.5 C 239.115,1609.79 257.115,1631.79 275.5,1653.5C 275.5,1664.83 275.5,1676.17 275.5,1687.5C 255.518,1667.82 237.185,1646.82 220.5,1624.5C 221.495,1612.34 221.829,1600.01 221.5,1587.5 Z"/></g>
<g><path style="opacity:0.993" fill="#aa8b54" d="M 1767.5,1600.5 C 1767.8,1613.55 1767.46,1626.55 1766.5,1639.5C 1749.92,1660.09 1732.25,1679.75 1713.5,1698.5C 1712.83,1687.83 1712.17,1677.17 1711.5,1666.5C 1730.57,1644.77 1749.24,1622.77 1767.5,1600.5 Z"/></g>
<g><path style="opacity:1" fill="#af9259" d="M 275.5,1653.5 C 290.139,1668.47 304.806,1683.47 319.5,1698.5C 318.506,1708.99 318.172,1719.65 318.5,1730.5C 303.167,1717.17 288.833,1702.83 275.5,1687.5C 275.5,1676.17 275.5,1664.83 275.5,1653.5 Z"/></g>
<g><path style="opacity:1" fill="#af9259" d="M 1711.5,1666.5 C 1712.17,1677.17 1712.83,1687.83 1713.5,1698.5C 1698.83,1713.17 1683.83,1727.5 1668.5,1741.5C 1668.5,1730.83 1668.5,1720.17 1668.5,1709.5C 1682.5,1694.83 1696.83,1680.5 1711.5,1666.5 Z"/></g>
<g><path style="opacity:0.997" fill="#b3975e" d="M 319.5,1698.5 C 331.161,1708.83 342.495,1719.5 353.5,1730.5C 352.833,1740.17 352.167,1749.83 351.5,1759.5C 340.178,1750.18 329.178,1740.51 318.5,1730.5C 318.172,1719.65 318.506,1708.99 319.5,1698.5 Z"/></g>
<g><path style="opacity:0.996" fill="#b3975e" d="M 1668.5,1709.5 C 1668.5,1720.17 1668.5,1730.83 1668.5,1741.5C 1657.78,1751.89 1646.45,1761.55 1634.5,1770.5C 1634.81,1760.42 1634.47,1750.42 1633.5,1740.5C 1644.84,1729.82 1656.51,1719.49 1668.5,1709.5 Z"/></g>
<g><path style="opacity:1" fill="#b69b61" d="M 353.5,1730.5 C 362.485,1737.49 371.152,1744.82 379.5,1752.5C 378.527,1762.08 378.194,1771.75 378.5,1781.5C 368.914,1774.92 359.914,1767.58 351.5,1759.5C 352.167,1749.83 352.833,1740.17 353.5,1730.5 Z"/></g>
<g><path style="opacity:1" fill="#b69b61" d="M 1633.5,1740.5 C 1634.47,1750.42 1634.81,1760.42 1634.5,1770.5C 1626.75,1777.88 1618.42,1784.54 1609.5,1790.5C 1608.83,1781.17 1608.17,1771.83 1607.5,1762.5C 1615.85,1754.82 1624.51,1747.49 1633.5,1740.5 Z"/></g>
<g><path style="opacity:0.998" fill="#b99f65" d="M 379.5,1752.5 C 390.872,1761.51 402.206,1770.51 413.5,1779.5C 413.216,1789.55 413.55,1799.55 414.5,1809.5C 402.099,1800.64 390.099,1791.31 378.5,1781.5C 378.194,1771.75 378.527,1762.08 379.5,1752.5 Z"/></g>
<g><path style="opacity:0.997" fill="#b99f64" d="M 1607.5,1762.5 C 1608.17,1771.83 1608.83,1781.17 1609.5,1790.5C 1597.9,1799.97 1585.9,1808.97 1573.5,1817.5C 1573.83,1807.65 1573.49,1797.99 1572.5,1788.5C 1584.16,1779.84 1595.83,1771.17 1607.5,1762.5 Z"/></g>
<g><path style="opacity:0.989" fill="#bea569" d="M 413.5,1779.5 C 431.35,1791.59 449.016,1803.92 466.5,1816.5C 465.504,1816.59 464.671,1816.25 464,1815.5C 463.333,1824.17 463.333,1832.83 464,1841.5C 464.717,1842.04 465.217,1842.71 465.5,1843.5C 447.974,1832.98 430.974,1821.64 414.5,1809.5C 413.55,1799.55 413.216,1789.55 413.5,1779.5 Z"/></g>
<g><path style="opacity:0.992" fill="#bea569" d="M 1572.5,1788.5 C 1573.49,1797.99 1573.83,1807.65 1573.5,1817.5C 1556.98,1829.26 1539.98,1840.26 1522.5,1850.5C 1522.83,1841.32 1522.49,1832.32 1521.5,1823.5C 1538.75,1812.26 1555.75,1800.59 1572.5,1788.5 Z"/></g>
<g><path style="opacity:0.993" fill="#c3ab6f" d="M 466.5,1816.5 C 478.343,1823.59 490.01,1830.92 501.5,1838.5C 500.507,1847.32 500.173,1856.32 500.5,1865.5C 488.292,1858.9 476.625,1851.57 465.5,1843.5C 465.217,1842.71 464.717,1842.04 464,1841.5C 463.333,1832.83 463.333,1824.17 464,1815.5C 464.671,1816.25 465.504,1816.59 466.5,1816.5 Z"/></g>
<g><path style="opacity:0.995" fill="#c2ab6e" d="M 1521.5,1823.5 C 1522.49,1832.32 1522.83,1841.32 1522.5,1850.5C 1514,1856.59 1505,1861.92 1495.5,1866.5C 1494.51,1857.68 1494.17,1848.68 1494.5,1839.5C 1503.52,1834.14 1512.52,1828.81 1521.5,1823.5 Z"/></g>
<g><path style="opacity:0.999" fill="#c8b274" d="M 501.5,1838.5 C 516.806,1846.82 532.14,1855.15 547.5,1863.5C 547.5,1872.5 547.5,1881.5 547.5,1890.5C 531.6,1882.6 515.933,1874.26 500.5,1865.5C 500.173,1856.32 500.507,1847.32 501.5,1838.5 Z"/></g>
<g><path style="opacity:0.999" fill="#c7b174" d="M 1494.5,1839.5 C 1494.17,1848.68 1494.51,1857.68 1495.5,1866.5C 1476.81,1877.85 1457.48,1888.18 1437.5,1897.5C 1437.83,1888.65 1437.49,1879.98 1436.5,1871.5C 1456.12,1861.36 1475.45,1850.69 1494.5,1839.5 Z"/></g>
<g><path style="opacity:0.999" fill="#ccb778" d="M 547.5,1863.5 C 560.691,1869.93 573.691,1876.59 586.5,1883.5C 585.507,1891.65 585.174,1899.98 585.5,1908.5C 572.292,1903.44 559.625,1897.44 547.5,1890.5C 547.5,1881.5 547.5,1872.5 547.5,1863.5 Z"/></g>
<g><path style="opacity:0.997" fill="#ccb879" d="M 1436.5,1871.5 C 1437.49,1879.98 1437.83,1888.65 1437.5,1897.5C 1422.02,1905.07 1406.35,1912.41 1390.5,1919.5C 1391.09,1910.57 1390.42,1901.9 1388.5,1893.5C 1404.74,1886.71 1420.74,1879.38 1436.5,1871.5 Z"/></g>
<g><path style="opacity:0.998" fill="#d1bd7d" d="M 586.5,1883.5 C 603.16,1890.5 619.827,1897.5 636.5,1904.5C 635.53,1913.08 635.197,1921.75 635.5,1930.5C 618.512,1923.73 601.846,1916.4 585.5,1908.5C 585.174,1899.98 585.507,1891.65 586.5,1883.5 Z"/></g>
<g><path style="opacity:0.998" fill="#d1be7e" d="M 1388.5,1893.5 C 1390.42,1901.9 1391.09,1910.57 1390.5,1919.5C 1377.16,1924.84 1363.83,1930.17 1350.5,1935.5C 1348.85,1926.65 1349.19,1917.98 1351.5,1909.5C 1363.76,1904.18 1376.09,1898.85 1388.5,1893.5 Z"/></g>
<g><path style="opacity:0.995" fill="#d7c584" d="M 636.5,1904.5 C 656.27,1912.42 676.27,1919.76 696.5,1926.5C 697.469,1934.75 697.802,1943.08 697.5,1951.5C 676.565,1945.3 655.898,1938.3 635.5,1930.5C 635.197,1921.75 635.53,1913.08 636.5,1904.5 Z"/></g>
<g><path style="opacity:0.988" fill="#d6c483" d="M 1351.5,1909.5 C 1349.19,1917.98 1348.85,1926.65 1350.5,1935.5C 1335.24,1941.03 1319.9,1946.37 1304.5,1951.5C 1306.76,1942.95 1307.1,1934.28 1305.5,1925.5C 1320.84,1920.16 1336.17,1914.83 1351.5,1909.5 Z"/></g>
<g><path style="opacity:0.993" fill="#dccc89" d="M 696.5,1926.5 C 707.454,1929.99 718.454,1933.32 729.5,1936.5C 727.855,1945.02 728.188,1953.36 730.5,1961.5C 719.165,1958.94 708.165,1955.61 697.5,1951.5C 697.802,1943.08 697.469,1934.75 696.5,1926.5 Z"/></g>
<g><path style="opacity:0.994" fill="#dbcb88" d="M 1305.5,1925.5 C 1307.1,1934.28 1306.76,1942.95 1304.5,1951.5C 1287.62,1956.64 1270.62,1961.3 1253.5,1965.5C 1255.81,1957.36 1256.15,1949.02 1254.5,1940.5C 1271.68,1936.11 1288.68,1931.11 1305.5,1925.5 Z"/></g>
<g><path style="opacity:0.999" fill="#e0d18e" d="M 729.5,1936.5 C 743.415,1940.48 757.415,1944.15 771.5,1947.5C 771.198,1955.92 771.531,1964.25 772.5,1972.5C 758.23,1969.43 744.23,1965.77 730.5,1961.5C 728.188,1953.36 727.855,1945.02 729.5,1936.5 Z"/></g>
<g><path style="opacity:0.998" fill="#e4d692" d="M 771.5,1947.5 C 786.744,1951.22 802.078,1954.55 817.5,1957.5C 816.791,1958.4 815.791,1958.74 814.5,1958.5C 814.5,1966.17 814.5,1973.83 814.5,1981.5C 800.362,1979.01 786.362,1976.01 772.5,1972.5C 771.531,1964.25 771.198,1955.92 771.5,1947.5 Z"/></g>
<g><path style="opacity:0.999" fill="#e0d18e" d="M 1254.5,1940.5 C 1256.15,1949.02 1255.81,1957.36 1253.5,1965.5C 1239.83,1969.75 1225.83,1973.08 1211.5,1975.5C 1212.47,1967.59 1212.8,1959.59 1212.5,1951.5C 1226.49,1948.17 1240.49,1944.5 1254.5,1940.5 Z"/></g>
<g><path style="opacity:0.997" fill="#e4d792" d="M 1212.5,1951.5 C 1212.8,1959.59 1212.47,1967.59 1211.5,1975.5C 1197.7,1979 1183.7,1982 1169.5,1984.5C 1167.85,1975.98 1168.19,1967.64 1170.5,1959.5C 1184.53,1956.96 1198.53,1954.29 1212.5,1951.5 Z"/></g>
<g><path style="opacity:0.996" fill="#e9dc97" d="M 817.5,1957.5 C 830.866,1959.84 844.199,1962.17 857.5,1964.5C 857.801,1972.59 857.467,1980.59 856.5,1988.5C 842.464,1986.38 828.464,1984.05 814.5,1981.5C 814.5,1973.83 814.5,1966.17 814.5,1958.5C 815.791,1958.74 816.791,1958.4 817.5,1957.5 Z"/></g>
<g><path style="opacity:0.996" fill="#e9dc97" d="M 1170.5,1959.5 C 1168.19,1967.64 1167.85,1975.98 1169.5,1984.5C 1155.82,1986.5 1142.15,1988.5 1128.5,1990.5C 1127.79,1989.6 1126.79,1989.26 1125.5,1989.5C 1125.8,1981.75 1125.47,1974.08 1124.5,1966.5C 1139.89,1964.54 1155.23,1962.21 1170.5,1959.5 Z"/></g>
<g><path style="opacity:0.993" fill="#eee39d" d="M 857.5,1964.5 C 875.138,1966.75 892.805,1968.75 910.5,1970.5C 908.582,1978.23 907.915,1986.23 908.5,1994.5C 891.127,1992.83 873.794,1990.83 856.5,1988.5C 857.467,1980.59 857.801,1972.59 857.5,1964.5 Z"/></g>
<g><path style="opacity:0.993" fill="#eee39d" d="M 1124.5,1966.5 C 1125.47,1974.08 1125.8,1981.75 1125.5,1989.5C 1126.79,1989.26 1127.79,1989.6 1128.5,1990.5C 1109.57,1992.89 1090.57,1994.56 1071.5,1995.5C 1072.21,1994.6 1073.21,1994.26 1074.5,1994.5C 1074.5,1987.17 1074.5,1979.83 1074.5,1972.5C 1072.83,1972.5 1071.17,1972.5 1069.5,1972.5C 1087.71,1970.71 1106.05,1968.71 1124.5,1966.5 Z"/></g>
<g><path style="opacity:0.998" fill="#f3eaa2" d="M 910.5,1970.5 C 924.487,1971.67 938.487,1972.67 952.5,1973.5C 951.791,1974.4 950.791,1974.74 949.5,1974.5C 949.5,1981.83 949.5,1989.17 949.5,1996.5C 950.791,1996.26 951.791,1996.6 952.5,1997.5C 937.814,1996.75 923.147,1995.75 908.5,1994.5C 907.915,1986.23 908.582,1978.23 910.5,1970.5 Z"/></g>
<g><path style="opacity:0.997" fill="#f3eaa2" d="M 1069.5,1972.5 C 1071.17,1972.5 1072.83,1972.5 1074.5,1972.5C 1074.5,1979.83 1074.5,1987.17 1074.5,1994.5C 1073.21,1994.26 1072.21,1994.6 1071.5,1995.5C 1059.03,1997.01 1046.36,1997.67 1033.5,1997.5C 1033.5,1989.83 1033.5,1982.17 1033.5,1974.5C 1032.5,1974.5 1031.5,1974.5 1030.5,1974.5C 1043.32,1973.38 1056.32,1972.71 1069.5,1972.5 Z"/></g>
<g><path style="opacity:0.998" fill="#f6efa6" d="M 952.5,1973.5 C 978.491,1974.33 1004.49,1974.66 1030.5,1974.5C 1031.5,1974.5 1032.5,1974.5 1033.5,1974.5C 1033.5,1982.17 1033.5,1989.83 1033.5,1997.5C 1032.83,1997.5 1032.5,1997.83 1032.5,1998.5C 1010.5,1998.5 988.5,1998.5 966.5,1998.5C 962.03,1997.51 957.363,1997.18 952.5,1997.5C 951.791,1996.6 950.791,1996.26 949.5,1996.5C 949.5,1989.17 949.5,1981.83 949.5,1974.5C 950.791,1974.74 951.791,1974.4 952.5,1973.5 Z"/></g>
</svg>
